<svg width="300" height="300" viewBox="0 0 300 300" fill="none" xmlns="http://www.w3.org/2000/svg">
<path d="M152.385 256.999C111.559 256.999 71.5633 242.568 40.3771 209.848C43.1646 210.408 47.1486 210.557 50.7687 210.557C53.5712 210.557 56.1565 210.468 57.7968 210.411C58.0471 210.402 58.3988 210.389 58.8374 210.36C60.3275 210.262 64.8192 209.968 68.6587 208.058C72.5614 206.116 74.9892 202.904 74.6728 202.472C74.6483 202.439 74.6088 202.423 74.5548 202.423C74.2701 202.423 73.5891 202.85 72.6765 203.276C71.7632 203.702 70.619 204.129 69.4066 204.129C68.9255 204.129 68.4336 204.061 67.941 203.9C67.631 203.798 65.9799 203.222 65.2895 201.758C65.0508 201.253 65.0817 200.969 64.8818 199.005C64.5898 196.146 64.4474 195.994 64.3137 195.928C64.2547 195.899 64.1943 195.886 64.1317 195.886C63.3299 195.886 62.167 198.139 59.1697 199.718C58.8525 199.886 57.3941 200.34 54.478 201.248C52.9139 201.735 52.0308 201.989 51.4217 201.989C51.0888 201.989 50.8378 201.913 50.6026 201.758C50.2956 201.556 49.3916 200.81 48.8335 200.81C48.8033 200.81 48.7731 200.812 48.7451 200.816C48.597 200.841 48.4323 200.887 48.4323 200.887C48.0914 200.99 47.8296 201.191 44.7625 202.265C41.589 203.376 41.0419 203.45 40.0555 204.075C39.806 204.234 38.1069 205.311 37.2593 206.482C27.6651 195.833 18.9723 183.378 11.415 168.987C11.415 168.987 -33.938 79.7164 56.1571 64.0326C67.7618 62.0124 77.9619 61.1572 87.0512 61.1572C112.117 61.1572 128.748 67.6593 143.195 74.1618C156.701 80.2409 168.298 86.32 183.087 87.0857L172.956 98.8974C172.461 98.5932 171.878 98.4178 171.255 98.4178C170.451 98.4178 169.717 98.709 169.148 99.1908C168.647 97.4096 167.01 96.1029 165.067 96.1029C163.435 96.1029 162.018 97.0255 161.31 98.3782C160.892 98.1826 160.426 98.074 159.934 98.074C158.307 98.074 156.96 99.2671 156.718 100.826C156.58 100.78 156.433 100.755 156.279 100.755C155.514 100.755 154.893 101.376 154.893 102.141C154.893 102.2 154.897 102.257 154.903 102.313H157.654H156.832H163.036H161.313H170.027L149.364 126.404L212.558 131.752V131.875C212.558 133.804 213.383 135.562 214.721 136.859C216.133 138.228 218.116 139.083 220.304 139.083H222.277C222.307 138.65 222.336 138.226 222.363 137.81H254.493C254.57 138.23 254.65 138.655 254.732 139.083H255.829C257.959 139.083 259.896 138.272 261.3 136.965C263.513 134.907 263.574 132.361 263.575 131.876V83.8527C310.078 106.521 316.925 189.096 255.313 226.853C223.887 246.111 187.824 256.999 152.385 256.999L152.385 256.999ZM219.267 204.718H223.6C223.772 204.384 223.869 204.006 223.869 203.604C223.869 202.259 222.779 201.169 221.433 201.169C221.143 201.169 220.866 201.219 220.607 201.312C220.037 200.041 218.76 199.156 217.276 199.156C217.068 199.156 216.863 199.173 216.664 199.207C215.83 197.709 214.232 196.697 212.398 196.697C210.312 196.697 208.532 198.006 207.834 199.847C207.73 199.837 207.625 199.832 207.518 199.832C206.756 199.832 206.053 200.088 205.491 200.518C204.884 199.692 203.906 199.156 202.801 199.156C200.959 199.156 199.466 200.649 199.466 202.49C199.466 203.347 199.79 204.128 200.321 204.718H210.471H208.666H216.129H214.168H220.385H219.267ZM59.8464 142.883C60.3397 142.883 61.0891 143.735 61.2365 144.697C61.532 146.637 59.1265 147.393 59.064 149.947C59.0381 151 59.4394 151.2 59.2452 152.3C58.9705 153.856 58.0522 154.114 58.1586 155.016C58.2988 156.197 59.9126 156.082 61.2365 157.912C62.2677 159.338 61.6694 159.935 62.6841 160.99C63.9167 162.27 65.2406 161.849 65.9432 162.981C66.5372 163.939 66.1662 165.172 65.9432 165.878C64.7631 169.609 64.1734 171.475 62.3224 176.196C61.6162 177.999 62.3734 176.298 59.9687 185.972C59.8421 186.481 59.5444 187.677 60.1499 188.687C60.8065 189.782 62.2979 190.282 63.3184 190.282C63.8024 190.282 64.1813 190.169 64.3137 189.954C64.674 189.37 62.9883 188.411 63.2278 186.877C63.3702 185.959 64.0274 185.961 65.0378 184.523C66.2934 182.738 65.8152 181.973 67.0291 180.722C67.283 180.46 68.0992 179.639 69.3828 179.274C69.8424 179.143 70.248 179.103 70.609 179.103C70.8873 179.103 71.139 179.126 71.3698 179.15C71.5999 179.174 71.8085 179.198 72.0005 179.198C72.3119 179.198 72.5794 179.136 72.8225 178.912C73.4747 178.311 72.9311 177.485 73.5466 176.377C74.1227 175.34 75.0036 175.338 76.2621 174.567C78.6964 173.076 77.9592 171.514 80.4259 169.679C81.793 168.662 81.9749 169.176 84.4084 167.688C86.3098 166.525 87.2605 165.944 87.8481 164.791C88.7556 163.01 87.628 162.2 88.5722 160.447C89.4 158.909 90.5009 159.096 91.2877 157.369C91.4883 156.927 91.9824 155.801 91.6494 154.472C91.3193 153.153 90.2478 151.926 88.934 151.576C88.6823 151.509 88.4493 151.481 88.2307 151.481C87.7222 151.481 87.2943 151.631 86.8981 151.781C86.5011 151.932 86.1358 152.082 85.7525 152.082C85.5533 152.082 85.3484 152.041 85.1319 151.938C83.9906 151.396 84.4962 150.066 82.9601 148.317C82.625 147.936 81.8318 147.4 80.2446 146.326C79.3774 145.74 78.2958 145.008 76.805 144.153C75.8838 143.626 75.4904 143.444 74.6325 142.886C73.2784 142.007 73.4366 141.931 72.8225 141.619C71.3734 140.886 70.8477 141.497 68.8392 140.895C67.4016 140.464 67.3362 140.05 66.305 139.99C66.2323 139.986 66.1626 139.984 66.095 139.984C65.1162 139.984 64.666 140.412 63.5895 140.714C62.9365 140.898 62.1872 140.997 61.4422 140.997C59.9212 140.997 58.4196 140.583 57.7969 139.628C57.0446 138.476 58.022 137.227 57.2539 136.551C57.0252 136.349 56.7311 136.277 56.4068 136.277C55.9983 136.277 55.5424 136.392 55.1087 136.506C54.6744 136.62 54.263 136.734 53.9437 136.734C53.7323 136.734 53.5619 136.684 53.4519 136.551C52.8564 135.825 54.8419 133.595 54.3572 133.111C54.3076 133.061 54.2415 133.039 54.1573 133.039C53.6611 133.039 52.5407 133.815 50.5552 134.378C49.6678 134.63 48.848 134.862 48.2151 134.862C47.8318 134.862 47.5168 134.777 47.2968 134.559C46.912 134.178 47.0897 133.663 47.478 131.12C47.9224 128.211 47.8685 127.722 48.3834 127.318C48.584 127.16 48.8379 127.042 49.3542 127.042C49.8842 127.042 50.6918 127.166 52.0035 127.499C55.1584 128.299 56.7361 128.698 57.9774 129.671C60.3965 131.566 59.6076 133.215 61.7794 134.74C63.0839 135.656 64.7077 136.001 66.0101 136.001C67.2254 136.001 68.161 135.701 68.2962 135.283C68.4473 134.818 67.59 134.25 62.1412 130.214C58.9647 127.861 57.3453 126.638 57.6157 125.689C57.8781 124.767 59.6242 125.146 60.5123 123.698C61.307 122.401 60.3721 121.344 61.2365 120.258C62.0247 119.267 63.048 119.838 63.952 118.81C64.9551 117.667 64.1612 116.429 65.0378 115.732C65.2665 115.55 65.5067 115.487 65.7728 115.487C66.072 115.487 66.4049 115.567 66.7933 115.647C67.1823 115.727 67.6267 115.806 68.1488 115.806C68.4178 115.806 68.7076 115.785 69.0204 115.732C70.6809 115.451 72.3435 114.382 72.2788 113.559C72.2234 112.842 70.9024 112.911 69.7446 111.568C68.8083 110.482 69.2225 109.915 68.4775 108.672C67.2873 106.684 64.94 105.981 63.0465 105.413C61.6514 104.995 60.6468 104.939 59.4257 104.87C58.9216 104.842 58.4779 104.818 58.1011 104.818C57.3654 104.818 56.8857 104.909 56.7103 105.232C56.3787 105.844 57.5437 106.541 57.7969 108.31C57.9349 109.277 57.812 110.652 57.2539 110.844C57.2129 110.858 57.1719 110.865 57.1317 110.865C56.4945 110.865 55.871 109.181 53.8143 107.767C51.8302 106.402 50.2143 106.458 50.1935 105.775C50.1747 105.178 51.4073 105.05 53.4519 103.603C55.2971 102.296 55.1922 101.764 56.1673 101.43C56.4995 101.317 56.8347 101.268 57.1669 101.268C58.1859 101.268 59.1798 101.726 59.9852 102.185C60.7913 102.643 61.4091 103.102 61.6752 103.102C61.7205 103.102 61.755 103.088 61.7794 103.06C62.0865 102.695 60.4296 100.05 57.6157 98.7148C56.1206 98.0058 54.6327 97.8253 53.4979 97.8253C52.6033 97.8253 51.9287 97.9374 51.6418 97.9907C50.4293 98.2172 49.2571 98.6897 48.7451 98.896C46.4842 99.8072 46.4288 100.336 45.4867 100.344H45.4629C43.7629 100.344 43.5846 98.5933 41.1418 97.8101C40.5498 97.6196 40.0884 97.5714 39.6936 97.5714C39.4873 97.5714 39.2991 97.5843 39.12 97.598C38.9409 97.611 38.771 97.6246 38.601 97.6246C38.2162 97.6246 37.8312 97.5563 37.3401 97.2665C35.7599 96.3345 36.0547 94.861 34.6247 94.3705C34.3561 94.2778 34.0697 94.2353 33.7797 94.2353C32.8722 94.2353 31.9273 94.6524 31.3661 95.2752C30.6449 96.0756 31.0564 96.6624 30.461 97.2665C30.1143 97.6189 29.6714 97.7282 29.1827 97.7282C28.7855 97.7282 28.358 97.6563 27.9267 97.5843C27.4955 97.5124 27.0605 97.4405 26.6486 97.4405C26.1885 97.4405 25.7573 97.5297 25.392 97.8101C24.0334 98.8508 24.3012 101.975 25.2111 102.336C25.2721 102.359 25.3352 102.371 25.3998 102.371C25.8561 102.371 26.3979 101.81 26.9742 101.248C27.5503 100.687 28.1611 100.126 28.7552 100.126C28.8414 100.126 28.9273 100.138 29.0127 100.163C29.686 100.363 29.2603 101.573 30.2799 102.698C31.0241 103.519 31.5545 103.271 32.2712 103.965C33.1912 104.856 32.8341 105.765 33.3575 108.128C34.0074 111.064 34.9116 111.261 34.6247 112.655C34.3497 113.991 33.4955 113.923 32.4523 115.913C31.8651 117.033 30.934 118.809 31.5472 120.258C32.1757 121.742 33.828 121.47 34.6247 123.154C35.1244 124.21 34.7941 124.994 34.8058 126.051C34.8223 127.559 35.5366 129.651 38.6074 132.206C36.8369 128.441 36.7749 127.623 36.9781 127.499C37.0011 127.485 37.0301 127.478 37.0646 127.478C37.5809 127.478 39.3224 129.016 40.2367 131.12C41.0512 132.994 40.7062 134.16 41.866 135.102C42.6512 135.741 43.0497 135.401 44.0384 136.188C45.3041 137.196 45.2178 138.203 46.0296 138.361C46.0922 138.373 46.1526 138.379 46.2116 138.379C46.623 138.379 46.9458 138.101 47.2824 137.823C47.6182 137.545 47.9677 137.267 48.4301 137.267C48.4733 137.267 48.5186 137.269 48.5639 137.275C49.6268 137.395 49.6081 138.79 50.9176 139.266C51.16 139.354 51.3865 139.388 51.6015 139.388C51.9906 139.388 52.3401 139.275 52.6694 139.163C52.9981 139.05 53.3073 138.937 53.6151 138.937C53.8014 138.937 53.9869 138.978 54.176 139.085C55.0699 139.59 54.5723 140.73 55.6244 142.343C56.3356 143.435 57.5315 144.398 58.365 144.398C58.4858 144.398 58.5987 144.378 58.7015 144.335C59.3703 144.056 59.2725 142.962 59.7882 142.886C59.8069 142.883 59.8263 142.883 59.8464 142.883ZM273.714 184.439H277.925C277.936 184.341 277.942 184.242 277.942 184.141C277.942 182.816 276.991 181.742 275.82 181.742C275.585 181.742 275.358 181.785 275.147 181.865C274.778 179.167 272.714 177.101 270.225 177.101C269.472 177.101 268.759 177.29 268.119 177.628C267.035 175.288 264.866 173.69 262.367 173.69C259.394 173.69 256.888 175.951 256.12 179.035C255.251 178.2 254.125 177.696 252.896 177.696C250.76 177.696 248.938 179.217 248.23 181.353C247.569 180.729 246.72 180.354 245.792 180.354C244.264 180.354 242.946 181.372 242.34 182.841C242.042 182.623 241.685 182.495 241.302 182.495C240.312 182.495 239.497 183.347 239.4 184.439H243.205H241.991H249.594H248.012H268.114H265.476H274.973H273.714ZM211.076 161.93H214.361C214.37 161.833 214.374 161.733 214.374 161.632C214.374 160.307 213.633 159.233 212.719 159.233C212.535 159.233 212.359 159.276 212.194 159.356C211.906 156.658 210.297 154.592 208.354 154.592C207.767 154.592 207.211 154.781 206.712 155.119C205.867 152.779 204.175 151.181 202.225 151.181C199.907 151.181 197.951 153.442 197.352 156.526C196.675 155.692 195.797 155.188 194.837 155.188C193.171 155.188 191.75 156.708 191.198 158.844C190.683 158.22 190.02 157.845 189.297 157.845C188.105 157.845 187.076 158.863 186.604 160.332C186.371 160.114 186.093 159.987 185.794 159.987C185.022 159.987 184.386 160.838 184.311 161.93H187.279H186.332H192.261H191.028H206.708H204.651H212.058H211.076ZM60.5331 90.4829C59.0934 90.4829 58.2211 90.7691 57.7968 90.9309C56.2234 91.5293 53.9545 93.0128 54.176 94.1893C54.4874 95.8434 59.2502 94.3814 62.8653 97.629C64.8429 99.4045 64.7947 101.077 67.3915 102.517C68.4587 103.108 69.7222 103.521 70.5572 103.521C70.9383 103.521 71.2303 103.435 71.3741 103.241C71.9422 102.472 69.6014 100.802 69.9258 98.1719C70.102 96.7401 70.8678 96.6538 70.8311 95.6377C70.7369 93.0531 65.6908 90.9971 61.9606 90.5685C61.4328 90.5081 60.9581 90.4829 60.5331 90.4829ZM105.409 83.4721H111.042C111.057 83.3572 111.064 83.2394 111.064 83.1202C111.064 81.5527 109.794 80.2817 108.226 80.2817C107.912 80.2817 107.609 80.3328 107.326 80.4276C106.832 77.2358 104.072 74.7923 100.743 74.7923C99.7367 74.7923 98.7817 75.0157 97.9266 75.4154C96.4768 72.6468 93.5759 70.7574 90.2333 70.7574C86.2572 70.7574 82.9046 73.4317 81.8777 77.08C80.7156 76.0925 79.2097 75.4962 77.5658 75.4962C74.7086 75.4962 72.2715 77.2949 71.3251 79.8215C70.4413 79.083 69.3051 78.6396 68.0645 78.6396C66.0208 78.6396 64.2582 79.8444 63.4477 81.5827C63.0486 81.3237 62.5711 81.1731 62.0591 81.1731C60.7344 81.1731 59.6442 82.1809 59.5148 83.4721H64.6033H62.981H73.1488H71.0331H97.9201H94.3913H107.094H105.409H105.409Z" fill="#D2EAFF"/>
<path d="M170.041 102.304H161.327H163.051H156.846H157.669H154.917C154.911 102.248 154.907 102.191 154.907 102.132C154.907 101.366 155.528 100.746 156.293 100.746C156.447 100.746 156.594 100.771 156.732 100.817C156.974 99.258 158.322 98.065 159.948 98.065C160.44 98.065 160.906 98.1735 161.324 98.3691C162.032 97.0164 163.449 96.0938 165.082 96.0938C167.024 96.0938 168.661 97.4005 169.163 99.1818C169.731 98.6999 170.466 98.4087 171.269 98.4087C171.892 98.4087 172.476 98.5842 172.97 98.8884L170.041 102.304Z" fill="#E6F4FF"/>
<path d="M223.572 204.75H219.239H220.357H214.141H216.102H200.293C199.762 204.159 199.439 203.378 199.439 202.522C199.439 200.68 200.932 199.187 202.773 199.187C203.878 199.187 204.857 199.724 205.463 200.55C206.025 200.119 206.728 199.863 207.491 199.863C207.597 199.863 207.702 199.868 207.806 199.878C208.504 198.037 210.285 196.728 212.37 196.728C214.205 196.728 215.803 197.741 216.636 199.238C216.835 199.204 217.04 199.187 217.249 199.187C218.732 199.187 220.009 200.072 220.58 201.344C220.838 201.25 221.115 201.2 221.405 201.2C222.751 201.2 223.841 202.29 223.841 203.636C223.841 204.037 223.744 204.416 223.572 204.75ZM210.443 204.75H208.638H210.443Z" fill="#E6F4FF"/>
<path d="M111.073 83.4667H105.44H107.125H94.4223H97.9511H71.0642H73.1799H63.012H64.6344H59.5458C59.6752 82.1754 60.7654 81.1677 62.0901 81.1677C62.6021 81.1677 63.0796 81.3182 63.4787 81.5773C64.2892 79.839 66.0518 78.6342 68.0956 78.6342C69.3361 78.6342 70.4723 79.0776 71.3561 79.816C72.3025 77.2895 74.7396 75.4907 77.5968 75.4907C79.2407 75.4907 80.7466 76.087 81.9087 77.0745C82.9356 73.4263 86.2882 70.752 90.2643 70.752C93.6069 70.752 96.5079 72.6414 97.9576 75.41C98.8127 75.0103 99.7677 74.7869 100.774 74.7869C104.103 74.7869 106.863 77.2304 107.357 80.4222C107.64 80.3273 107.943 80.2763 108.257 80.2763C109.825 80.2763 111.096 81.5473 111.096 83.1148C111.096 83.2339 111.088 83.3517 111.073 83.4667H111.073Z" fill="#E6F4FF"/>
<path d="M277.954 184.479H273.743H275.002H265.504H268.143H248.04H249.622H242.02H243.234H239.429C239.526 183.387 240.34 182.535 241.331 182.535C241.713 182.535 242.071 182.663 242.369 182.881C242.975 181.412 244.293 180.394 245.821 180.394C246.749 180.394 247.598 180.769 248.259 181.393C248.966 179.257 250.789 177.736 252.925 177.736C254.154 177.736 255.28 178.24 256.148 179.075C256.917 175.991 259.423 173.73 262.396 173.73C264.895 173.73 267.063 175.328 268.148 177.668C268.787 177.33 269.501 177.141 270.254 177.141C272.743 177.141 274.806 179.207 275.175 181.905C275.387 181.825 275.613 181.782 275.848 181.782C277.02 181.782 277.971 182.856 277.971 184.181C277.971 184.281 277.965 184.381 277.954 184.479Z" fill="#E6F4FF"/>
<path d="M214.328 161.92H211.043H212.025H204.617H206.675H190.995H192.228H186.299H187.245H184.277C184.353 160.828 184.989 159.977 185.761 159.977C186.059 159.977 186.338 160.104 186.571 160.323C187.043 158.854 188.072 157.835 189.264 157.835C189.987 157.835 190.65 158.21 191.165 158.834C191.717 156.698 193.138 155.178 194.804 155.178C195.763 155.178 196.642 155.682 197.319 156.517C197.918 153.433 199.873 151.172 202.192 151.172C204.141 151.172 205.834 152.769 206.679 155.11C207.178 154.772 207.734 154.583 208.321 154.583C210.263 154.583 211.873 156.648 212.16 159.346C212.326 159.266 212.502 159.223 212.685 159.223C213.599 159.223 214.341 160.298 214.341 161.622C214.341 161.723 214.337 161.823 214.328 161.92Z" fill="#E6F4FF"/>
<path d="M63.3307 190.31C62.3103 190.31 60.8188 189.81 60.1622 188.714C59.5567 187.704 59.8544 186.508 59.981 185.999C62.3858 176.325 61.6285 178.026 62.3347 176.223C64.1858 171.503 64.7754 169.637 65.9555 165.905C66.1785 165.199 66.5496 163.966 65.9555 163.008C65.253 161.876 63.929 162.297 62.6964 161.017C61.6817 159.963 62.2801 159.365 61.2488 157.939C59.9249 156.11 58.3111 156.224 58.1709 155.043C58.0645 154.141 58.9828 153.883 59.2575 152.328C59.4517 151.227 59.0504 151.027 59.0763 149.974C59.1389 147.42 61.5444 146.665 61.2488 144.724C61.1014 143.762 60.3521 142.91 59.8587 142.91C59.8386 142.91 59.8192 142.911 59.8005 142.914C59.2848 142.99 59.3827 144.084 58.7139 144.362C58.611 144.405 58.4981 144.425 58.3773 144.425C57.5438 144.425 56.3479 143.462 55.6367 142.371C54.5846 140.758 55.0822 139.618 54.1884 139.112C53.9992 139.005 53.8137 138.964 53.6274 138.964C53.3196 138.964 53.0104 139.077 52.6818 139.19C52.3524 139.303 52.0029 139.416 51.6138 139.416C51.3988 139.416 51.1723 139.381 50.9299 139.293C49.6204 138.817 49.6391 137.422 48.5762 137.302C48.5309 137.296 48.4856 137.294 48.4425 137.294C47.9801 137.294 47.6306 137.572 47.2947 137.85C46.9582 138.128 46.6353 138.406 46.2239 138.406C46.165 138.406 46.1045 138.4 46.0419 138.388C45.2301 138.23 45.3164 137.223 44.0507 136.216C43.062 135.429 42.6636 135.768 41.8783 135.13C40.7185 134.187 41.0636 133.021 40.249 131.147C39.3347 129.044 37.5932 127.505 37.077 127.505C37.0425 127.505 37.0134 127.513 36.9904 127.526C36.7872 127.651 36.8492 128.468 38.6197 132.233C35.549 129.679 34.8346 127.587 34.8182 126.078C34.8064 125.021 35.1367 124.238 34.637 123.181C33.8404 121.498 32.1881 121.77 31.5595 120.285C30.9463 118.836 31.8774 117.061 32.4647 115.94C33.5078 113.95 34.362 114.018 34.637 112.682C34.924 111.288 34.0197 111.091 33.3698 108.156C32.8464 105.792 33.2035 104.884 32.2836 103.992C31.5668 103.298 31.0364 103.546 30.2922 102.725C29.2726 101.601 29.6984 100.39 29.025 100.19C28.9396 100.165 28.8537 100.153 28.7675 100.153C28.1734 100.153 27.5626 100.715 26.9865 101.276C26.4102 101.837 25.8685 102.398 25.4122 102.398C25.3475 102.398 25.2845 102.387 25.2234 102.363C24.3136 102.003 24.0457 98.878 25.4043 97.8374C25.7697 97.557 26.2008 97.4678 26.6609 97.4678C27.0728 97.4678 27.5078 97.5397 27.939 97.6116C28.3703 97.6836 28.7978 97.7555 29.195 97.7555C29.6838 97.7555 30.1266 97.6462 30.4733 97.2938C31.0687 96.6897 30.6573 96.1029 31.3784 95.3025C31.9396 94.6797 32.8846 94.2626 33.792 94.2626C34.0821 94.2626 34.3684 94.3051 34.637 94.3978C36.067 94.8883 35.7722 96.3618 37.3525 97.2938C37.8436 97.5836 38.2285 97.6519 38.6133 97.6519C38.7833 97.6519 38.9533 97.6382 39.1323 97.6253C39.3114 97.6116 39.4996 97.5987 39.706 97.5987C40.1007 97.5987 40.5621 97.6469 41.1541 97.8374C43.5969 98.6206 43.7753 100.372 45.4752 100.372H45.4991C46.4411 100.363 46.4965 99.8345 48.7574 98.9233C49.2695 98.717 50.4416 98.2445 51.6541 98.018C51.941 97.9647 52.6156 97.8526 53.5102 97.8526C54.645 97.8526 56.1329 98.0331 57.628 98.7421C60.4419 100.077 62.0988 102.723 61.7918 103.087C61.7673 103.115 61.7328 103.129 61.6875 103.129C61.4214 103.129 60.8037 102.67 59.9975 102.212C59.1921 101.753 58.1982 101.295 57.1792 101.295C56.847 101.295 56.5119 101.344 56.1796 101.458C55.2045 101.791 55.3095 102.323 53.4642 103.63C51.4197 105.078 50.1871 105.206 50.2058 105.803C50.2266 106.485 51.8425 106.429 53.8266 107.794C55.8833 109.208 56.5068 110.893 57.144 110.893C57.1843 110.893 57.2253 110.885 57.2662 110.871C57.8243 110.679 57.9473 109.304 57.8092 108.337C57.5561 106.568 56.3911 105.872 56.7226 105.26C56.8981 104.936 57.3777 104.845 58.1134 104.845C58.4902 104.845 58.9339 104.869 59.438 104.897C60.6591 104.966 61.6638 105.022 63.0589 105.44C64.9524 106.008 67.2996 106.712 68.4898 108.699C69.2348 109.943 68.8206 110.509 69.7569 111.595C70.9147 112.939 72.2358 112.87 72.2911 113.586C72.3559 114.409 70.6932 115.478 69.0327 115.759C68.7199 115.812 68.4301 115.834 68.1611 115.834C67.639 115.834 67.1946 115.754 66.8056 115.674C66.4172 115.594 66.0843 115.514 65.7851 115.514C65.519 115.514 65.2788 115.577 65.0502 115.759C64.1735 116.456 64.9675 117.694 63.9643 118.837C63.0603 119.865 62.037 119.294 61.2488 120.285C60.3844 121.371 61.3193 122.428 60.5247 123.725C59.6365 125.173 57.8905 124.794 57.628 125.716C57.3576 126.665 58.9771 127.889 62.1535 130.242C67.6024 134.277 68.4596 134.845 68.3086 135.31C68.1734 135.728 67.2378 136.029 66.0224 136.029C64.7201 136.029 63.0963 135.683 61.7918 134.767C59.62 133.243 60.4089 131.594 57.9897 129.699C56.7485 128.726 55.1707 128.326 52.0158 127.526C50.7041 127.193 49.8965 127.07 49.3666 127.07C48.8502 127.07 48.5964 127.187 48.3957 127.345C47.8808 127.749 47.9348 128.238 47.4903 131.147C47.102 133.69 46.9244 134.206 47.3091 134.587C47.5292 134.805 47.8442 134.889 48.2274 134.889C48.8603 134.889 49.6801 134.657 50.5675 134.405C52.553 133.842 53.6734 133.066 54.1696 133.066C54.2538 133.066 54.32 133.089 54.3696 133.138C54.8543 133.622 52.8687 135.852 53.4642 136.578C53.5742 136.712 53.7447 136.761 53.9561 136.761C54.2754 136.761 54.6867 136.648 55.1211 136.533C55.5547 136.419 56.0106 136.305 56.4191 136.305C56.7434 136.305 57.0376 136.377 57.2662 136.578C58.0343 137.254 57.057 138.503 57.8092 139.655C58.432 140.61 59.9335 141.024 61.4545 141.024C62.1995 141.024 62.9488 140.925 63.6018 140.742C64.6784 140.439 65.1286 140.011 66.1073 140.011C66.1749 140.011 66.2446 140.013 66.3173 140.018C67.3485 140.077 67.414 140.491 68.8515 140.922C70.8601 141.524 71.3857 140.913 72.8348 141.646C73.4489 141.958 73.2907 142.035 74.6449 142.914C75.5028 143.471 75.8962 143.653 76.8174 144.181C78.3081 145.036 79.3897 145.767 80.257 146.353C81.8441 147.427 82.6373 147.963 82.9724 148.344C84.5085 150.093 84.003 151.423 85.1442 151.965C85.3607 152.068 85.5656 152.109 85.7648 152.109C86.1481 152.109 86.5135 151.959 86.9104 151.809C87.3067 151.658 87.7345 151.509 88.243 151.509C88.4616 151.509 88.6946 151.536 88.9463 151.604C90.2602 151.954 91.3317 153.181 91.6617 154.5C91.9947 155.828 91.5007 156.955 91.3 157.396C90.5133 159.124 89.4123 158.936 88.5846 160.474C87.6403 162.227 88.7679 163.037 87.8604 164.818C87.2729 165.971 86.3222 166.552 84.4208 167.715C81.9872 169.203 81.8053 168.689 80.4382 169.706C77.9716 171.541 78.7087 173.103 76.2744 174.594C75.0159 175.365 74.135 175.367 73.559 176.404C72.9434 177.512 73.487 178.338 72.8348 178.939C72.5917 179.163 72.3242 179.225 72.0128 179.225C71.8208 179.225 71.6123 179.201 71.3821 179.177C71.1513 179.154 70.8996 179.131 70.6213 179.131C70.2603 179.131 69.8547 179.17 69.3952 179.301C68.1115 179.666 67.2953 180.488 67.0414 180.749C65.8275 182 66.3058 182.765 65.0502 184.551C64.0398 185.988 63.3825 185.986 63.2401 186.904C63.0006 188.438 64.6863 189.398 64.326 189.982C64.1937 190.197 63.8147 190.31 63.3307 190.31Z" fill="#EBF6FF"/>
<path d="M70.5223 103.492C69.6874 103.492 68.4239 103.079 67.3567 102.488C64.7599 101.049 64.8081 99.3758 62.8305 97.6003C59.2154 94.3527 54.4526 95.8146 54.1412 94.1606C53.9197 92.9841 56.1885 91.5006 57.762 90.9022C58.1863 90.7404 59.0586 90.4542 60.4983 90.4542C60.9233 90.4542 61.3979 90.4794 61.9258 90.5398C65.6559 90.9684 70.7021 93.0244 70.7963 95.609C70.833 96.6251 70.0671 96.7114 69.8909 98.1432C69.5666 100.773 71.9074 102.444 71.3393 103.212C71.1954 103.407 70.9035 103.492 70.5223 103.492Z" fill="#EBF6FF"/>
<path d="M40.3644 209.835C38.3415 209.428 36.9493 208.805 36.7843 207.864C36.7062 207.419 36.9088 206.937 37.2466 206.47C38.2721 207.608 39.3187 208.738 40.3644 209.835Z" fill="#F5FAFF"/>
<path d="M50.7896 210.594C47.1695 210.594 43.1855 210.445 40.398 209.885C39.3523 208.787 38.3057 207.658 37.2802 206.519C38.1278 205.348 39.8268 204.27 40.0764 204.112C41.0627 203.487 41.6098 203.413 44.7834 202.301C47.8505 201.228 48.1123 201.027 48.4531 200.924C48.4531 200.924 48.6178 200.878 48.7659 200.853C48.794 200.849 48.8242 200.847 48.8544 200.847C49.4124 200.847 50.3164 201.593 50.6235 201.795C50.8586 201.95 51.1096 202.026 51.4426 202.026C52.0517 202.026 52.9348 201.772 54.4989 201.285C57.415 200.377 58.8734 199.923 59.1905 199.755C62.1879 198.176 63.3507 195.923 64.1526 195.923C64.2151 195.923 64.2755 195.936 64.3345 195.965C64.4683 196.031 64.6107 196.183 64.9026 199.042C65.1025 201.006 65.0716 201.29 65.3104 201.795C66.0007 203.259 67.6519 203.835 67.9618 203.937C68.4544 204.098 68.9463 204.165 69.4274 204.165C70.6399 204.165 71.784 203.739 72.6973 203.313C73.6099 202.887 74.2909 202.46 74.5757 202.46C74.6296 202.46 74.6692 202.476 74.6936 202.509C75.0101 202.941 72.5823 206.153 68.6795 208.095C64.84 210.005 60.3483 210.299 58.8583 210.397C58.4196 210.426 58.068 210.439 57.8177 210.448C56.1774 210.505 53.5921 210.594 50.7896 210.594Z" fill="#EBF6FF"/>
<path d="M84.364 151.178C82.7733 151.194 81.4709 149.917 81.4551 148.327C81.4393 146.737 82.7164 145.434 84.3064 145.418C85.8972 145.403 87.1995 146.679 87.2154 148.27C87.2312 149.86 85.9547 151.162 84.364 151.178ZM84.2748 142.897C81.2616 142.973 78.6756 145.907 79.1603 149.263C79.8075 150.776 80.6619 152.49 81.7959 154.295C82.72 155.765 83.6657 157.037 84.5596 158.117C85.3521 157.06 86.1697 155.865 86.9687 154.524C88.133 152.569 89.0182 150.71 89.6956 149.046C90.043 145.653 87.3038 142.821 84.2748 142.897Z" fill="#57A8E5"/>
<path d="M84.3735 151.219C82.7828 151.234 81.4805 149.958 81.4646 148.368C81.4488 146.777 82.726 145.475 84.316 145.459C85.9067 145.443 87.2091 146.72 87.2249 148.31C87.2407 149.901 85.9643 151.203 84.3735 151.219ZM84.4145 144.068C82.0637 144.091 80.1774 146.016 80.2004 148.367C80.2241 150.717 82.1485 152.604 84.4994 152.581C86.8503 152.557 88.7373 150.632 88.7135 148.282C88.6905 145.931 86.7654 144.044 84.4145 144.068Z" fill="#1A5DA0"/>
<path d="M77.3323 166.412C75.7423 166.428 74.4399 165.152 74.4241 163.562C74.4083 161.971 75.6848 160.668 77.2755 160.653C78.8655 160.637 80.1678 161.913 80.1837 163.504C80.1995 165.095 78.923 166.396 77.3323 166.412ZM77.2431 158.131C74.23 158.207 71.6439 161.141 72.1293 164.497C72.7759 166.01 73.6302 167.724 74.7643 169.529C75.6884 171 76.6347 172.271 77.5279 173.351C78.3211 172.295 79.1388 171.099 79.937 169.758C81.1013 167.804 81.9866 165.944 82.664 164.28C83.0113 160.887 80.2721 158.055 77.2431 158.131Z" fill="#57A8E5"/>
<path d="M77.3416 166.38C75.7516 166.396 74.4492 165.119 74.4334 163.529C74.4176 161.938 75.6941 160.636 77.2848 160.62C78.8748 160.605 80.1771 161.881 80.193 163.472C80.2088 165.062 78.9323 166.364 77.3416 166.38ZM77.3833 159.229C75.0324 159.252 73.1454 161.177 73.1692 163.527C73.1922 165.878 75.1173 167.765 77.4682 167.742C79.8183 167.718 81.7053 165.794 81.6823 163.443C81.6586 161.092 79.7342 159.205 77.3833 159.229Z" fill="#1A5DA0"/>
<path d="M63.7822 103.79C62.1922 103.806 60.8899 102.53 60.8741 100.939C60.8582 99.3489 62.1347 98.0465 63.7254 98.0307C65.3154 98.0149 66.6178 99.2914 66.6336 100.882C66.6494 102.473 65.373 103.774 63.7822 103.79ZM63.6931 95.5094C60.6806 95.5849 58.0939 98.519 58.5793 101.875C59.2258 103.388 60.0808 105.102 61.2142 106.907C62.1383 108.378 63.0847 109.649 63.9778 110.729C64.771 109.673 65.5887 108.477 66.3869 107.136C67.5519 105.182 68.4365 103.322 69.1139 101.658C69.4612 98.2652 66.7221 95.4332 63.6931 95.5094Z" fill="#57A8E5"/>
<path d="M63.7917 103.831C62.2017 103.847 60.8993 102.57 60.8835 100.98C60.8677 99.3896 62.1441 98.0872 63.7349 98.0714C65.3249 98.0556 66.6272 99.3321 66.643 100.923C66.6589 102.514 65.3824 103.815 63.7917 103.831ZM63.8334 96.6799C61.4825 96.7029 59.5955 98.628 59.6192 100.978C59.6423 103.329 61.5674 105.216 63.9182 105.193C66.2691 105.169 68.1554 103.245 68.1324 100.894C68.1086 98.5432 66.1842 96.6561 63.8334 96.6799Z" fill="#1A5DA0"/>
<path d="M72.4983 145.392C70.9083 145.408 69.6059 144.132 69.5901 142.541C69.5743 140.95 70.8508 139.649 72.4415 139.633C74.0315 139.616 75.3339 140.893 75.3497 142.484C75.3655 144.074 74.089 145.377 72.4983 145.392ZM72.4091 137.111C69.396 137.186 66.8099 140.12 67.2954 143.477C67.9419 144.99 68.7962 146.703 69.9303 148.508C70.8544 149.98 71.8007 151.251 72.6939 152.331C73.4871 151.275 74.3041 150.079 75.103 148.739C76.2673 146.784 77.1525 144.924 77.83 143.26C78.1773 139.867 75.4381 137.035 72.4091 137.111Z" fill="#57A8E5"/>
<path d="M72.5076 145.433C70.9176 145.449 69.6152 144.173 69.5994 142.582C69.5836 140.991 70.8601 139.689 72.4508 139.674C74.0408 139.657 75.3432 140.934 75.359 142.524C75.3748 144.115 74.0983 145.417 72.5076 145.433ZM72.5493 138.281C70.1985 138.305 68.3115 140.229 68.3352 142.58C68.3582 144.931 70.2833 146.818 72.6342 146.794C74.9843 146.771 76.8713 144.846 76.8483 142.495C76.8246 140.145 74.9002 138.258 72.5493 138.281Z" fill="#1A5DA0"/>
<path d="M63.5625 126.789C61.9725 126.805 60.6701 125.528 60.6543 123.937C60.6385 122.347 61.915 121.045 63.5057 121.029C65.0964 121.013 66.398 122.29 66.4146 123.881C66.4304 125.471 65.1532 126.773 63.5625 126.789ZM63.4733 118.507C60.4609 118.584 57.8741 121.518 58.3596 124.874C59.0068 126.386 59.8611 128.101 60.9945 129.906C61.9193 131.376 62.8649 132.648 63.7581 133.728C64.5513 132.671 65.369 131.475 66.1672 130.135C67.3322 128.18 68.2175 126.321 68.8949 124.657C69.2415 121.264 66.503 118.432 63.4733 118.507Z" fill="#57A8E5"/>
<path d="M63.4989 126.757C61.9089 126.772 60.6066 125.496 60.5908 123.905C60.5749 122.315 61.8514 121.013 63.4421 120.997C65.0329 120.981 66.3345 122.258 66.351 123.848C66.3669 125.438 65.0897 126.741 63.4989 126.757ZM63.5407 119.605C61.1898 119.628 59.3028 121.553 59.3265 123.904C59.3495 126.255 61.2747 128.142 63.6255 128.118C65.9764 128.095 67.8627 126.17 67.8396 123.819C67.8159 121.469 65.8915 119.582 63.5407 119.605Z" fill="#1A5DA0"/>
<path d="M39.6127 114.777C38.0223 114.793 36.72 113.517 36.7042 111.926C36.6884 110.335 37.965 109.033 39.5554 109.018C41.146 109.002 42.4483 110.278 42.4641 111.868C42.48 113.459 41.2033 114.761 39.6127 114.777ZM39.5234 106.496C36.5105 106.571 33.9242 109.505 34.4095 112.862C35.0563 114.374 35.9107 116.088 37.0446 117.893C37.9688 119.365 38.9148 120.636 39.8083 121.715C40.6011 120.66 41.4186 119.464 42.2172 118.123C43.3821 116.169 44.2674 114.308 44.9441 112.645C45.2914 109.252 42.5526 106.42 39.5234 106.496Z" fill="#57A8E5"/>
<path d="M39.6223 114.818C38.0319 114.834 36.7296 113.557 36.7138 111.967C36.698 110.376 37.9746 109.074 39.565 109.058C41.1556 109.043 42.4579 110.319 42.4737 111.909C42.4896 113.5 41.2129 114.802 39.6223 114.818ZM39.6636 107.666C37.3129 107.69 35.4261 109.614 35.4494 111.965C35.4729 114.316 37.3976 116.203 39.7484 116.179C42.0991 116.156 43.9857 114.231 43.9627 111.88C43.939 109.529 42.0144 107.643 39.6636 107.666Z" fill="#1A5DA0"/>
<path d="M66.1262 159.161C64.5355 159.177 63.2339 157.9 63.218 156.31C63.2022 154.72 64.4787 153.417 66.0687 153.402C67.6594 153.386 68.9618 154.662 68.9776 156.253C68.9934 157.844 67.717 159.145 66.1262 159.161ZM66.0371 150.88C63.0239 150.956 60.4379 153.89 60.9233 157.246C61.5698 158.759 62.4241 160.473 63.5582 162.278C64.4823 163.748 65.4287 165.02 66.3218 166.1C67.115 165.044 67.932 163.848 68.7309 162.507C69.8952 160.553 70.7805 158.693 71.4579 157.029C71.8052 153.636 69.066 150.804 66.0371 150.88Z" fill="#57A8E5"/>
<path d="M66.1362 159.129C64.5455 159.145 63.2439 157.868 63.2281 156.277C63.2122 154.687 64.4887 153.385 66.0787 153.369C67.6694 153.353 68.9718 154.63 68.9876 156.221C69.0034 157.811 67.727 159.113 66.1362 159.129ZM66.1772 151.978C63.8271 152.001 61.9401 153.925 61.9631 156.276C61.9868 158.627 63.9113 160.514 66.2621 160.49C68.6129 160.467 70.5 158.543 70.4762 156.192C70.4532 153.841 68.5281 151.954 66.1772 151.978Z" fill="#1A5DA0"/>
<path d="M47.8892 131.843C46.2985 131.858 44.9961 130.582 44.9803 128.991C44.9645 127.4 46.2416 126.098 47.8317 126.082C49.4224 126.066 50.7248 127.343 50.7406 128.934C50.7564 130.524 49.4799 131.827 47.8892 131.843ZM47.8 123.561C44.7869 123.637 42.2006 126.571 42.6858 129.927C43.3328 131.44 44.1871 133.154 45.3212 134.959C46.2453 136.43 47.1909 137.701 48.0848 138.781C48.8773 137.724 49.6949 136.528 50.4932 135.188C51.6582 133.233 52.5434 131.374 53.2209 129.71C53.5682 126.317 50.829 123.485 47.8 123.561Z" fill="#57A8E5"/>
<path d="M47.8989 131.81C46.3082 131.826 45.0058 130.55 44.99 128.959C44.9742 127.368 46.2513 126.066 47.8414 126.05C49.4321 126.034 50.7345 127.311 50.7503 128.901C50.7661 130.492 49.4897 131.794 47.8989 131.81ZM47.9399 124.658C45.5891 124.681 43.7028 126.607 43.7258 128.957C43.7495 131.308 45.6739 133.195 48.0248 133.172C50.3756 133.148 52.2626 131.223 52.2389 128.873C52.2159 126.522 50.2908 124.635 47.9399 124.658Z" fill="#1A5DA0"/>
<path d="M63.7824 177.106C62.1924 177.121 60.89 175.845 60.8742 174.255C60.8584 172.664 62.1348 171.362 63.7248 171.346C65.3156 171.33 66.6179 172.607 66.6337 174.197C66.6496 175.788 65.3731 177.09 63.7824 177.106ZM63.6932 168.825C60.68 168.9 58.094 171.834 58.5794 175.191C59.2259 176.704 60.0803 178.417 61.2143 180.222C62.1384 181.693 63.0848 182.964 63.978 184.045C64.7712 182.988 65.5881 181.792 66.3871 180.452C67.5514 178.497 68.4366 176.637 69.114 174.973C69.4614 171.581 66.7222 168.749 63.6932 168.825Z" fill="#57A8E5"/>
<path d="M63.7917 177.146C62.2017 177.162 60.8993 175.886 60.8835 174.296C60.8677 172.705 62.1441 171.403 63.7341 171.387C65.3249 171.371 66.6272 172.647 66.643 174.238C66.6589 175.829 65.3824 177.13 63.7917 177.146ZM63.8334 169.995C61.4825 170.018 59.5955 171.943 59.6192 174.293C59.6422 176.644 61.5667 178.531 63.9175 178.508C66.2684 178.485 68.1554 176.56 68.1316 174.209C68.1086 171.858 66.1842 169.971 63.8334 169.995Z" fill="#1A5DA0"/>
<path d="M53.236 112.726C51.6453 112.742 50.343 111.465 50.3271 109.875C50.3113 108.284 51.5885 106.982 53.1785 106.966C54.7692 106.95 56.0716 108.227 56.0874 109.818C56.1032 111.408 54.8268 112.71 53.236 112.726ZM53.1469 104.445C50.1337 104.52 47.5477 107.455 48.0324 110.811C48.6796 112.324 49.5339 114.037 50.668 115.843C51.5921 117.313 52.5378 118.585 53.4316 119.665C54.2241 118.608 55.0418 117.412 55.84 116.072C57.005 114.117 57.8903 112.258 58.5677 110.594C58.915 107.201 56.1759 104.369 53.1469 104.445Z" fill="#57A8E5"/>
<path d="M53.2455 112.766C51.6548 112.782 50.3524 111.506 50.3366 109.916C50.3208 108.325 51.5979 107.023 53.188 107.007C54.7787 106.991 56.081 108.268 56.0969 109.858C56.1127 111.449 54.8362 112.751 53.2455 112.766ZM53.2865 105.615C50.9356 105.638 49.0493 107.564 49.0724 109.914C49.0961 112.265 51.0205 114.152 53.3713 114.129C55.7222 114.105 57.6092 112.18 57.5855 109.83C57.5625 107.479 55.6373 105.592 53.2865 105.615Z" fill="#1A5DA0"/>
<path d="M48.7677 97.7115C47.1777 97.7274 45.8753 96.4509 45.8594 94.8602C45.8437 93.2694 47.1202 91.9678 48.7109 91.952C50.3009 91.9362 51.6032 93.2126 51.6191 94.8033C51.6349 96.3934 50.3584 97.6957 48.7677 97.7115ZM48.6785 89.4302C45.6661 89.5058 43.0793 92.4403 43.5648 95.7965C44.2113 97.3088 45.0663 99.0225 46.1997 100.828C47.1238 102.299 48.0701 103.57 48.9633 104.65C49.7565 103.594 50.5742 102.398 51.3724 101.058C52.5367 99.1031 53.4219 97.2434 54.0994 95.5793C54.4467 92.1864 51.7075 89.3543 48.6785 89.4302Z" fill="#57A8E5"/>
<path d="M48.7771 97.6794C47.1871 97.6953 45.8848 96.4188 45.8689 94.8281C45.8531 93.2374 47.1296 91.9357 48.7203 91.9199C50.3103 91.9041 51.6127 93.1805 51.6285 94.7713C51.6443 96.3613 50.3679 97.6636 48.7771 97.6794ZM48.8188 90.5276C46.468 90.5514 44.581 92.4758 44.6047 94.8266C44.6277 97.1775 46.5528 99.0645 48.9037 99.0408C51.2546 99.0178 53.1409 97.0926 53.1178 94.7418C53.0941 92.3909 51.1697 90.5047 48.8188 90.5276Z" fill="#1A5DA0"/>
<path d="M34.3393 99.3964C32.7489 99.4122 31.4466 98.1358 31.4307 96.545C31.4149 94.955 32.6916 93.6527 34.2819 93.6369C35.8725 93.621 37.1748 94.8975 37.1907 96.4882C37.2064 98.0782 35.9298 99.3806 34.3393 99.3964ZM34.2499 91.1148C31.237 91.1911 28.6508 94.1251 29.136 97.4814C29.7828 98.9937 30.6373 100.708 31.7711 102.513C32.6954 103.984 33.6413 105.255 34.5349 106.335C35.3277 105.279 36.1452 104.083 36.9437 102.743C38.1084 100.788 38.9936 98.9282 39.671 97.2642C40.0181 93.8713 37.2792 91.0393 34.2499 91.1148Z" fill="#57A8E5"/>
<path d="M34.3488 99.4371C32.7585 99.4529 31.4562 98.1765 31.4403 96.5857C31.4245 94.9957 32.7012 93.6934 34.2915 93.6776C35.8821 93.6617 37.1844 94.9382 37.2003 96.5289C37.216 98.1189 35.9394 99.4213 34.3488 99.4371ZM34.3902 92.2853C32.0394 92.309 30.1526 94.2334 30.176 96.5843C30.1994 98.9351 32.1241 100.822 34.4749 100.798C36.8257 100.775 38.7125 98.8503 38.689 96.4994C38.6657 94.1493 36.741 92.2623 34.3902 92.2853Z" fill="#1A5DA0"/>
<path d="M186.241 87.1758C185.179 87.1758 184.135 87.1484 183.105 87.0951L212.576 52.7344V82.2109C212.212 82.3299 211.841 82.453 211.475 82.5773C201.845 85.844 193.628 87.1757 186.241 87.1757V87.1758Z" fill="#F3F9FF"/>
<path d="M212.535 131.729L149.341 126.381L170.004 102.29H174.422H173.389H178.355H177.563H180.048C179.985 101.659 179.453 101.167 178.805 101.167C178.555 101.167 178.322 101.24 178.127 101.367C177.732 100.518 176.87 99.9294 175.872 99.9294C175.266 99.9294 174.711 100.146 174.28 100.506C174.024 99.8244 173.546 99.2505 172.933 98.8737L183.064 87.0619C184.094 87.1152 185.137 87.1427 186.2 87.1427C193.586 87.1427 201.804 85.8109 211.433 82.5442C211.8 82.42 212.17 82.2968 212.535 82.1778V131.729H212.535Z" fill="#E9F5FF"/>
<path d="M180.039 102.293H177.554H178.347H173.38H174.414H169.995L172.924 98.877C173.537 99.2539 174.015 99.8277 174.271 100.509C174.703 100.149 175.257 99.9327 175.863 99.9327C176.862 99.9327 177.723 100.521 178.119 101.37C178.313 101.244 178.546 101.17 178.797 101.17C179.444 101.17 179.976 101.662 180.039 102.293Z" fill="#F2F9FF"/>
<path d="M263.566 51.0786V131.85C263.564 132.335 263.504 134.881 261.29 136.94C259.887 138.246 257.95 139.057 255.82 139.057H254.722C254.64 138.629 254.561 138.205 254.484 137.785H222.354C222.326 138.2 222.297 138.624 222.267 139.057H220.295C218.107 139.057 216.124 138.203 214.712 136.833C213.374 135.537 212.549 133.778 212.549 131.85V51.0786C212.549 47.1155 216.034 43.8722 220.295 43.8722H255.82C259.56 43.8722 262.703 46.3719 263.415 49.6641C263.514 50.1221 263.566 50.5953 263.566 51.0786H263.566Z" fill="#90BBF2"/>
<path d="M255.216 45.8496C255.216 47.435 253.897 48.7321 252.287 48.7321H224.339C223.533 48.7321 222.802 48.4078 222.271 47.8855C221.741 47.3629 221.411 46.6423 221.411 45.8496H255.216H255.216Z" fill="#013666"/>
<path d="M214.712 136.869C213.374 135.573 212.549 133.814 212.549 131.886V131.763V131.886C212.549 133.814 213.374 135.573 214.712 136.869Z" fill="#E4F2FF"/>
<path d="M260.595 45.4024C259.28 44.4447 257.628 43.8724 255.838 43.8724H243.018V43.8722H255.837C257.627 43.8722 259.28 44.4447 260.595 45.4024Z" fill="#F1F8FF"/>
<path d="M214.712 136.833C213.374 135.537 212.549 133.779 212.549 131.851V97.4422L240.254 48.7025H252.298C253.908 48.7025 255.227 47.4054 255.227 45.82H241.892L243 43.8722L255.82 43.8724C257.61 43.8724 259.262 44.4447 260.578 45.4024C262.012 46.4462 263.044 47.9474 263.415 49.6644L214.712 136.834L214.712 136.833Z" fill="#BBD5F7"/>
<path d="M252.279 48.7321H240.234L241.873 45.8496H255.207C255.207 47.435 253.889 48.7321 252.279 48.7321Z" fill="#6484A1"/>
<path d="M212.549 88.9474V79.1891L229.117 48.7061H234.752L212.549 88.9479" fill="#BBD5F7"/>
<path d="M236.372 45.82H230.713L231.771 43.8722L237.446 43.8724L236.372 45.82Z" fill="#BBD5F7"/>
<path d="M234.737 48.7321H229.102L230.669 45.8496H236.328L234.737 48.7321Z" fill="#6484A1"/>
<path d="M253.405 130.486C253.175 132.875 252.457 135.077 251.378 137.013H224.509C223.638 135.374 223.022 133.554 222.734 131.61C222.732 131.6 222.731 131.591 222.73 131.582C224.23 128.679 225.91 125.017 227.346 120.764C227.713 119.681 228.062 118.56 228.389 117.404C230.578 109.672 231.752 100.352 229.838 90.2688C229.345 87.6746 228.687 85.2379 227.92 82.9615C228.743 82.3187 229.82 81.6491 230.976 81.4839C231.004 81.4798 231.033 81.4761 231.061 81.4729C231.438 81.4268 231.824 81.4359 232.211 81.5181C232.221 81.5204 232.232 81.5226 232.242 81.5249C232.28 81.5331 232.316 81.5423 232.352 81.5514L232.353 81.5519C233.027 81.7295 233.268 82.0608 234.037 82.5105C235.166 83.1705 236.518 83.5485 237.893 83.6635C238.494 83.7142 239.099 83.7146 239.693 83.6654C240.008 83.6393 240.32 83.5996 240.627 83.5462C241.161 83.4527 241.678 83.3175 242.163 83.1422C243.216 82.7601 243.842 82.2868 244.345 81.9704C244.788 81.6916 245.137 81.5345 245.601 81.6688C245.724 81.7044 245.84 81.7564 245.949 81.8221C247.159 82.5506 247.511 84.9805 247.64 85.9386C247.921 88.0275 248.159 90.4917 248.369 93.1302V93.1309C248.464 94.3125 248.553 95.53 248.638 96.7633C248.677 97.3321 248.715 97.9038 248.753 98.4777C248.805 99.2716 248.856 100.07 248.905 100.867C249.297 107.124 249.63 113.301 250.086 117.118L250.087 117.123C250.213 118.175 250.388 119.384 250.643 120.733C251.157 123.451 251.99 126.732 253.378 130.414C253.387 130.438 253.396 130.462 253.405 130.486L253.405 130.486Z" fill="#B4D5F9"/>
<path d="M235.84 110.08C237.178 98.8848 237.574 92.6491 237.3 89.8726C237.24 89.2579 236.983 87.1529 238.091 86.3846C238.593 86.0366 239.443 85.9162 239.929 86.284C240.349 86.601 240.378 87.1888 240.405 87.5272C240.542 89.2433 240.981 88.9667 241.439 91.4965C242.587 97.8292 241.455 108.523 241.317 109.779C241.118 111.602 240.917 113.087 240.04 113.387C238.576 113.887 236.296 110.726 235.84 110.08V110.08Z" fill="#013666"/>
<path d="M238.79 113.183L238.79 113.203C238.775 113.567 238.76 113.931 238.746 114.295C238.713 115.124 238.68 115.955 238.647 116.784C238.611 117.661 238.576 118.538 238.542 119.416C238.508 120.254 238.474 121.093 238.441 121.931C238.44 121.94 238.44 121.948 238.44 121.957C238.426 122.297 238.412 122.636 238.399 122.976C238.396 123.061 238.392 123.147 238.389 123.231C238.374 123.607 238.359 123.983 238.344 124.358C238.328 124.746 238.313 125.133 238.297 125.52C238.279 125.966 238.262 126.411 238.244 126.856C238.243 126.868 238.243 126.882 238.242 126.895C238.229 127.149 238.214 127.404 238.201 127.658V127.659C238.199 127.689 238.196 127.72 238.195 127.75C238.189 127.861 238.183 127.971 238.176 128.082C238.119 129.074 238.057 130.065 237.991 131.058V131.059C237.927 132.013 237.858 132.968 237.786 133.923C237.707 134.954 237.623 135.985 237.535 137.014C237.511 137.292 237.487 137.57 237.462 137.847H222.341C222.52 135.078 222.623 132.7 222.684 130.771C222.698 130.332 222.709 129.917 222.72 129.526V129.525C222.721 129.491 222.721 129.456 222.722 129.421C222.743 128.565 222.759 127.687 222.782 126.747C222.813 125.472 222.857 124.081 222.944 122.463V122.462C222.945 122.453 222.945 122.443 222.946 122.434V122.433C222.946 122.415 222.948 122.398 222.949 122.379V122.379C222.954 122.288 222.959 122.196 222.964 122.104C222.981 121.798 223 121.484 223.021 121.161C223.041 120.848 223.063 120.525 223.087 120.194C223.088 120.173 223.09 120.152 223.091 120.131C223.248 117.972 223.408 116.437 223.475 115.697C223.788 112.247 223.783 107.131 222.367 99.8344C222.252 99.2483 222.13 98.6471 221.997 98.0315C222.867 95.8899 223.223 94.049 223.383 92.7358C223.635 90.6561 223.518 88.8727 223.383 86.8023C223.303 85.5977 223.194 84.5924 223.104 83.8718L223.103 83.8631C224.244 83.5503 225.537 83.1174 226.922 82.5119C228.504 81.8194 229.844 81.0585 230.939 80.3466C230.95 80.7198 230.965 81.0995 230.982 81.485C230.985 81.5447 230.987 81.6043 230.99 81.6648C231.003 81.9452 231.018 82.2293 231.035 82.5155C231.035 82.5234 231.035 82.5306 231.036 82.5385V82.5392C231.05 82.7895 231.065 83.0433 231.083 83.2994V83.3001C231.321 86.8993 231.823 90.9481 232.766 95.3211C233.245 97.5483 233.795 99.6597 234.391 101.652C234.952 103.53 235.554 105.301 236.175 106.962V106.962C236.821 108.688 237.486 110.294 238.147 111.776C238.362 112.258 238.577 112.727 238.79 113.183Z" fill="white"/>
<path d="M262.174 131.878C262.172 132.459 262.028 134.46 260.299 136.068C259.091 137.193 257.491 137.812 255.796 137.812H220.271C218.526 137.812 216.894 137.162 215.675 135.98C215.566 135.874 215.462 135.766 215.363 135.654C214.411 134.589 213.893 133.264 213.893 131.878V51.1063C213.893 47.8342 216.754 45.172 220.271 45.172H255.796C258.822 45.172 261.453 47.1784 262.05 49.9435C262.132 50.3232 262.174 50.7144 262.174 51.1063V131.878ZM264.731 49.4408C263.879 45.4927 260.12 42.627 255.796 42.627H220.271C217.845 42.627 215.558 43.5115 213.833 45.1166C212.107 46.7224 211.157 48.8496 211.157 51.1063V131.878C211.157 134.07 212.061 136.153 213.702 137.743C214.544 138.559 215.533 139.201 216.641 139.652C217.791 140.12 219.012 140.357 220.271 140.357H255.796C258.222 140.357 260.508 139.473 262.234 137.868C263.336 136.843 264.114 135.602 264.549 134.181C264.844 133.216 264.908 132.398 264.91 131.882V51.1064C264.91 50.5462 264.85 49.9853 264.731 49.4409V49.4408Z" fill="#013666"/>
<path d="M253.408 103.372C251.985 107.002 252.026 110.817 252.313 118.527C252.425 121.551 252.684 125.42 253.271 130.017V130.021C253.305 130.286 253.34 130.555 253.377 130.826V130.827C253.667 132.995 254.028 135.316 254.481 137.779H236.386C236.371 137.507 236.354 137.229 236.338 136.947C236.251 135.413 236.163 133.753 236.084 132.1V132.099C236.074 131.871 236.064 131.643 236.053 131.415C236.018 130.652 235.987 129.893 235.959 129.155C235.94 128.672 235.923 128.197 235.909 127.734V127.733C235.906 127.665 235.904 127.599 235.902 127.532C235.886 127.021 235.873 126.526 235.863 126.052V126.051C235.861 125.956 235.859 125.861 235.857 125.768V125.767C235.849 125.346 235.844 124.944 235.841 124.562C235.839 124.306 235.838 123.762 235.856 123.032C235.859 122.96 235.861 122.885 235.863 122.81C235.867 122.652 235.872 122.488 235.879 122.316C235.887 122.13 235.894 121.944 235.902 121.758C236 119.326 236.146 116.874 236.975 114.377C237.228 113.616 237.505 112.966 237.8 112.381V112.38C237.917 112.147 238.035 111.924 238.157 111.709C238.599 110.925 239.065 110.236 239.531 109.507C239.531 109.507 240.438 108.084 241.655 105.694L241.656 105.693C242.73 103.584 244.045 100.722 245.191 97.4186C245.868 95.4727 246.564 92.686 246.623 89.0091V89.0055C246.638 88.0354 246.61 87.0048 246.524 85.9103V85.9089C246.424 84.613 246.244 83.2294 245.966 81.7559C245.926 81.5437 245.883 81.3294 245.839 81.1129V81.1122C245.806 80.9555 245.773 80.7987 245.739 80.6398C245.819 80.7088 245.901 80.7786 245.985 80.849C246.875 81.5941 247.947 82.393 249.208 83.1661C249.727 83.484 250.238 83.7716 250.733 84.0326C251.759 84.5727 252.724 84.9963 253.59 85.3307C254.324 87.9591 254.681 90.1971 254.869 91.8252C255.091 93.746 255.29 95.4712 255.052 97.5991C254.821 99.648 254.285 101.176 253.826 102.332C253.673 102.719 253.529 103.063 253.408 103.372H253.408Z" fill="white"/>
<path d="M235.254 84.9919C236.126 85.6534 236.999 86.315 237.872 86.9765C238.056 86.8698 238.637 86.5672 239.393 86.6758C239.892 86.7475 240.248 86.9665 240.427 87.0968C240.874 86.4753 241.321 85.8539 241.767 85.2324C241.341 84.7514 240.914 84.2702 240.489 83.7891C239.19 83.8292 237.892 83.8693 236.593 83.9094C236.147 84.2702 235.701 84.6311 235.254 84.9919Z" fill="#013666"/>
<path d="M227.826 91.3725L227.271 91.3193C227.505 88.9135 228.354 85.4253 231.062 82.4708L231.475 82.8408C228.869 85.6834 228.052 89.0492 227.826 91.3725Z" fill="#000202"/>
<path d="M247.569 99.1376L247.014 99.0937C247.539 92.6489 246.749 86.9321 244.666 82.102C243.974 80.4981 243.251 79.3032 241.972 78.6854C238.604 77.0585 233.756 80.3701 231.492 82.8399L231.079 82.4699C233.452 79.8816 238.574 76.4307 242.217 78.1904C243.651 78.8831 244.438 80.1686 245.178 81.8859C247.298 86.7989 248.102 92.6035 247.569 99.1376Z" fill="#000202"/>
<path d="M229.874 106.218L229.449 105.861C229.945 105.284 230.304 104.649 230.516 103.973C230.778 103.139 230.715 102.547 230.578 101.25C230.546 100.943 230.509 100.599 230.472 100.204C230.352 98.9309 230.329 98.2297 230.311 97.7184C230.29 97.0971 230.278 96.7224 230.124 95.8623C229.75 93.7639 229.282 93.0318 228.833 92.5529C228.529 92.2307 227.966 91.6309 227.267 91.6654C226.507 91.7036 225.963 92.4867 225.639 92.9541C224.977 93.9091 224.793 94.8699 224.568 96.3398C224.207 98.6928 224.026 99.8744 224.02 100.891C224.008 102.831 224.283 104.775 224.837 106.668L224.301 106.82C223.733 104.877 223.45 102.881 223.462 100.887C223.468 99.8312 223.651 98.6367 224.016 96.2578C224.253 94.7103 224.45 93.6949 225.179 92.6428C225.536 92.1271 226.202 91.1664 227.239 91.1153C228.199 91.0678 228.903 91.8172 229.241 92.1775C229.749 92.719 230.273 93.5273 230.674 95.7659C230.834 96.6649 230.848 97.0769 230.869 97.6997C230.887 98.2326 230.909 98.8963 231.027 100.153C231.064 100.545 231.1 100.888 231.133 101.193C231.274 102.526 231.345 103.195 231.049 104.136C230.815 104.883 230.419 105.584 229.874 106.218Z" fill="#000202"/>
<path d="M249.105 104.138C248.789 104.422 248.4 104.636 247.957 104.747C246.516 105.107 245.048 104.242 244.683 102.817C244.319 101.394 245.195 99.9428 246.635 99.5825C247.427 99.3848 248.228 99.5567 248.848 99.9881C249.357 100.343 249.745 100.871 249.91 101.511C250.162 102.497 249.819 103.497 249.105 104.138ZM250.45 101.377C250.215 100.457 249.597 99.73 248.806 99.3193H248.805C248.412 99.1151 247.975 98.9893 247.521 98.9583C247.336 98.9454 247.149 98.9475 246.961 98.967C246.807 98.9835 246.653 99.0101 246.498 99.0489C244.76 99.4833 243.702 101.235 244.143 102.952C244.583 104.671 246.354 105.715 248.094 105.281C248.482 105.184 248.835 105.021 249.146 104.808C250.23 104.067 250.792 102.712 250.45 101.377Z" fill="#000202"/>
<path d="M225.659 106.609C225.76 107.002 225.519 107.402 225.12 107.501C224.723 107.601 224.318 107.363 224.217 106.97C224.116 106.577 224.358 106.177 224.756 106.077C225.154 105.977 225.558 106.216 225.659 106.609Z" fill="#000202"/>
<path d="M229.834 105.95C229.934 106.344 229.694 106.743 229.295 106.843C228.898 106.942 228.493 106.704 228.392 106.31C228.291 105.917 228.533 105.517 228.931 105.418C229.329 105.319 229.733 105.557 229.834 105.95Z" fill="#000202"/>
<path d="M244.388 84.3792C240.343 83.4038 236.297 82.4285 232.251 81.4532C232.7 77.8129 233.15 74.1726 233.599 70.5323H244.388V84.3792Z" fill="#AD8B74"/>
<path d="M233.329 87.8056C234.972 86.3221 236.615 84.8387 238.258 83.3553C237.355 82.9646 235.991 82.2436 234.668 80.9497C233.574 79.8807 232.891 78.7947 232.476 78.0028C231.987 79.224 231.496 80.4451 231.006 81.6662C231.78 83.7127 232.554 85.7591 233.329 87.8056Z" fill="white"/>
<path d="M243.896 88.0988C242.456 86.5351 241.016 84.9715 239.575 83.4079C240.332 82.9933 241.4 82.2969 242.436 81.1827C243.427 80.1157 244.028 79.0557 244.383 78.296C244.483 78.8267 244.649 79.465 244.931 80.1604C245.161 80.7253 245.417 81.2071 245.661 81.6037C245.073 83.7687 244.485 85.9337 243.896 88.0988Z" fill="white"/>
<path d="M239.78 115.516C239.78 116.212 239.21 116.775 238.506 116.775C237.802 116.775 237.232 116.212 237.232 115.516C237.232 114.821 237.802 114.258 238.506 114.258C239.21 114.258 239.78 114.821 239.78 115.516Z" fill="#1F4788"/>
<path d="M239.78 120.644C239.78 121.339 239.21 121.902 238.506 121.902C237.802 121.902 237.232 121.339 237.232 120.644C237.232 119.949 237.802 119.385 238.506 119.385C239.21 119.385 239.78 119.949 239.78 120.644Z" fill="#1F4788"/>
<path d="M239.707 125.551C239.707 126.246 239.137 126.81 238.433 126.81C237.729 126.81 237.158 126.246 237.158 125.551C237.158 124.855 237.729 124.292 238.433 124.292C239.137 124.292 239.707 124.855 239.707 125.551Z" fill="#1F4788"/>
<path d="M250.642 120.682C248.991 121.191 247.34 121.701 245.688 122.21C245.09 122.395 244.482 121.953 244.482 121.334V118.981C246.948 118.139 249.413 117.297 251.877 116.455C251.915 117.229 251.952 118.003 251.989 118.777C252.031 119.641 251.477 120.424 250.642 120.682Z" fill="#1A5DA0"/>
<path d="M224.422 83.5693C225.144 88.8877 224.547 92.9478 223.874 95.6575C223.24 98.2126 222.489 99.7702 217.341 111.199C216.368 113.359 215.585 115.101 215.123 116.129C216.671 117.107 218.366 118.309 220.113 119.781C222.394 121.703 224.22 123.63 225.656 125.35C225.856 127.084 226.057 128.819 226.257 130.553C220.996 129.153 217.012 127.257 214.384 125.806C209.576 123.152 204.924 120.584 204.451 116.54C204.293 115.187 204.686 114.387 206.253 111.016C209.352 104.349 213.289 98.0378 215.84 91.147C216.348 89.7769 217.078 87.6528 219.127 85.9151C220.906 84.4059 222.942 83.8232 224.422 83.5693V83.5693Z" fill="white"/>
<path d="M230.126 129.84C229.545 132.014 230.784 134.874 232.427 135.122C234.035 135.366 235.517 133.031 236.014 132.247C237.166 130.431 238.283 127.215 237.101 126.211C235.727 125.043 230.979 126.647 230.126 129.84Z" fill="#013666"/>
<path d="M233.058 135.59C224.249 131.477 215.44 127.363 206.63 123.249C206.297 122.861 204.06 120.173 205.16 117.7C206.414 114.881 210.892 114.842 211.291 114.844C219.289 118.455 227.287 122.065 235.285 125.675C234.07 126.742 233.208 127.728 232.615 128.487C230.822 130.785 230.711 132.007 230.736 132.505C230.74 132.578 230.745 132.624 230.746 132.638C230.884 133.81 232.082 134.88 233.058 135.59H233.058Z" fill="white"/>
<path d="M241.747 123.037V127.911L218.77 126.416L215.479 122.022L241.747 123.037H241.747Z" fill="#57A8E5"/>
<path d="M215.546 120.776L241.779 122.13L241.712 123.403L215.478 122.049L215.546 120.776H215.546Z" fill="#94C9F7"/>
<path d="M230.859 131.712C233.524 131.872 237.365 131.674 241.328 129.824C242.105 129.461 242.816 129.069 243.466 128.663C243.43 127.009 243.394 125.355 243.359 123.7C242.887 123.606 242.246 123.561 241.756 123.912C241.41 124.159 241.313 124.481 241.008 125.073C241.008 125.073 240.684 125.703 239.94 126.763C238.742 128.465 235.273 126.996 232.856 128.637C232.18 129.095 231.357 129.953 230.859 131.712Z" fill="#EAB488"/>
<path d="M236.872 125.738C238.277 125.359 239.845 125.388 240.012 125.393C240.952 125.421 241.766 125.555 242.393 125.695C242.262 126.162 242.001 126.776 241.431 127.173C241.014 127.463 240.673 127.469 239.927 127.609C239.747 127.643 238.184 127.945 237.077 128.462C236.759 128.611 236.53 128.755 236.348 128.895C235.703 129.389 235.288 129.768 235.127 129.918C234.179 130.802 231.895 130.865 231.566 130.229C231.122 129.375 233.849 126.552 236.872 125.738Z" fill="#D6A27F"/>
<path d="M231.484 68.1229C232.062 70.0416 232.023 71.7461 231.397 71.9301C230.771 72.1141 229.795 70.7079 229.218 68.7892C228.64 66.8705 228.679 65.1659 229.305 64.9819C229.931 64.7979 230.906 66.2041 231.484 68.1229Z" fill="#F8B586"/>
<path d="M246.398 68.6984C245.935 70.6472 245.044 72.1076 244.409 71.9601C243.773 71.8127 243.633 70.1132 244.096 68.1644C244.559 66.2155 245.45 64.7552 246.086 64.9027C246.722 65.0501 246.861 66.7496 246.398 68.6984Z" fill="#DA9770"/>
<path d="M245.471 67.2914C245.323 69.1201 245.029 70.5957 244.71 72.1958C244.323 74.1427 244.121 75.1292 243.742 75.7794C242.756 77.4681 240.562 79.2169 238.022 79.0621C237.943 79.0572 237.866 79.0509 237.789 79.0424C235.134 78.7596 233.512 76.5021 233.249 76.135C232.493 75.0838 231.891 72.6709 230.718 67.8878C230.631 67.5363 230.589 67.3603 230.573 67.2914C229.847 64.2377 229.219 61.3913 230.923 58.8461C232.447 56.5709 235.336 55.5197 237.789 55.5177C237.867 55.5177 237.945 55.5186 238.022 55.5207C240.554 55.5883 243.371 56.7728 244.821 59.065C245.988 60.9096 245.816 63.0368 245.471 67.2914Z" fill="#F8B586"/>
<path d="M245.427 67.2914C245.279 69.1201 244.984 70.5957 244.666 72.1958C244.278 74.1427 244.076 75.1291 243.697 75.7794C242.711 77.468 240.518 79.2169 237.978 79.0621C237.899 79.0572 237.821 79.0509 237.744 79.0424V55.5177C237.823 55.5177 237.9 55.5186 237.978 55.5207C240.509 55.5883 243.327 56.7728 244.777 59.065C245.943 60.9096 245.771 63.0368 245.427 67.2914V67.2914Z" fill="#DA9770"/>
<path d="M232.802 56.1762C231.775 55.8772 230.796 56.5829 230.45 56.8318C230.328 56.9202 229.777 57.329 229.365 58.0834C228.884 58.9628 228.879 59.787 228.882 60.3481C228.884 60.6457 228.907 61.0216 229.244 62.434C229.689 64.3005 229.946 65.3507 230.581 66.6616C230.835 67.184 231.074 67.5954 231.234 67.8575C231.255 67.3934 231.268 66.6374 231.174 65.7119C230.985 63.8407 230.566 63.2782 230.692 61.8976C230.767 61.0588 230.853 60.1196 231.536 59.5733C232.558 58.7569 233.918 59.6156 234.371 58.9773C234.827 58.335 234.095 56.5526 232.802 56.1762Z" fill="#013666"/>
<path d="M244.74 70.5584C244.734 70.5571 245.331 69.2523 245.042 67.6977C244.881 66.8345 244.588 66.6518 244.62 65.8501C244.652 65.0266 244.977 64.8088 244.86 64.1218C244.742 63.4185 244.355 63.3777 244.197 62.751C243.965 61.8305 244.668 61.4013 244.86 60.3075C245.164 58.5794 243.816 57.3316 244.077 57.1487C244.344 56.9615 245.97 58.1214 246.429 59.8903C246.538 60.3109 246.567 60.7095 246.429 61.9762C246.216 63.9372 245.894 65.3172 245.464 67.3103C245.464 67.3103 244.763 70.5633 244.74 70.5584Z" fill="#013666"/>
<path d="M239.169 56.9807C238.874 57.619 240.612 58.9413 241.137 59.3408C241.755 59.8108 243.648 61.2501 245.684 60.795C246.025 60.7188 246.706 60.5664 246.829 60.1394C247.072 59.2996 244.974 58.0806 244.719 57.9343C242.508 56.6706 239.514 56.2363 239.169 56.9807Z" fill="#020A54"/>
<path d="M239.828 58.0887C239.62 58.6721 239.139 59.6946 238.143 60.0824C236.964 60.5416 235.781 59.8318 234.101 58.824C232.95 58.1337 232.269 57.7113 231.997 56.8544C231.627 55.6942 232.285 54.6147 232.349 54.5128C233.566 52.5795 236.764 52.7848 237.536 52.844C238.922 52.9503 240.048 53.5307 242.301 54.6915C242.301 54.6915 246.04 56.6183 246.403 58.327C246.423 58.4217 246.47 58.6624 246.342 58.8634C246.099 59.2459 245.343 59.2913 244.799 59.0774C244.278 58.8727 244.28 58.56 243.689 58.0291C243.378 57.7501 242.616 57.0664 241.686 57.0762C240.711 57.0865 240.024 57.8532 239.828 58.0887Z" fill="#013666"/>
<path d="M243.559 66.6895L243.47 67.7737C243.428 68.2793 243.064 68.6967 242.564 68.8119L240.896 69.1973C240.285 69.3383 239.669 68.9819 239.496 68.384L239.071 66.9152C238.969 66.561 239.039 66.189 239.262 65.8949C239.487 65.6001 239.83 65.4315 240.204 65.4315H242.386C242.719 65.4315 243.026 65.5644 243.251 65.8065C243.477 66.0486 243.587 66.362 243.559 66.6895ZM244.255 66.5216C244.242 66.1986 244.144 65.8845 243.971 65.6112C243.91 65.5161 243.84 65.4255 243.762 65.3416C243.409 64.9629 242.907 64.7461 242.386 64.7461H240.204C239.61 64.7461 239.065 65.0142 238.709 65.482C238.531 65.7137 238.415 65.9758 238.363 66.2499C238.317 66.4853 238.32 66.7288 238.37 66.9694C238.379 67.014 238.391 67.0593 238.404 67.1038L238.829 68.5728C239.063 69.3821 239.809 69.9139 240.626 69.9139C240.767 69.9139 240.911 69.8982 241.055 69.8648L242.722 69.4802C243.312 69.3435 243.782 68.9425 244.013 68.4168C244.094 68.2341 244.145 68.0366 244.162 67.8294L244.165 67.7826V67.7811L244.251 66.7451C244.257 66.6701 244.259 66.5959 244.255 66.5216Z" fill="#013666"/>
<path d="M236.413 67.203L235.985 68.6816C235.813 69.2764 235.2 69.6328 234.59 69.4918L232.915 69.1049C232.417 68.9898 232.055 68.5739 232.013 68.0704L231.923 66.9788C231.896 66.652 232.006 66.3394 232.23 66.0988C232.455 65.8575 232.761 65.7253 233.093 65.7253H235.286C235.657 65.7253 235.998 65.8931 236.223 66.1865C236.446 66.4797 236.515 66.8503 236.413 67.203ZM237.065 66.3209C237.002 66.127 236.905 65.9421 236.776 65.7735C236.42 65.3072 235.877 65.0391 235.286 65.0391H233.093C232.573 65.0391 232.073 65.256 231.72 65.6339C231.537 65.8307 231.4 66.0624 231.319 66.312C231.278 66.4323 231.251 66.5578 231.237 66.684V66.6855C231.224 66.8005 231.222 66.9179 231.231 67.0345L231.247 67.2253V67.226L231.248 67.2469L231.254 67.3033V67.3048L231.322 68.1261C231.356 68.5412 231.527 68.9193 231.795 69.2125V69.2132C232.045 69.4851 232.376 69.6841 232.758 69.7724L234.432 70.1593C234.576 70.1928 234.719 70.2084 234.86 70.2084C235.675 70.2084 236.418 69.6774 236.652 68.8702L237.081 67.3917C237.115 67.2744 237.137 67.1548 237.147 67.036C237.168 66.7924 237.14 66.5503 237.065 66.3209Z" fill="#013666"/>
<path d="M238.796 66.929L236.763 67.049L236.719 66.3309L238.752 66.211L238.796 66.929Z" fill="#013666"/>
<path d="M245.208 65.6635C244.772 66.0559 244.335 66.4483 243.898 66.8407C243.824 66.4885 243.751 66.1364 243.677 65.7842C244.174 65.487 244.671 65.1898 245.167 64.8926C245.181 65.1496 245.195 65.4065 245.208 65.6635Z" fill="#013666"/>
<path d="M231.643 67.8265C231.314 67.3532 230.985 66.8799 230.656 66.4067C230.65 66.1217 230.645 65.8367 230.64 65.5518C230.973 65.9301 231.305 66.3083 231.638 66.6867C231.64 67.0667 231.641 67.4466 231.643 67.8265Z" fill="#013666"/>
<path d="M244.825 71.3379C244.438 73.0795 244.05 74.8211 243.662 76.5628C243.475 76.7956 241.364 79.3345 237.96 79.1069C237.894 79.1025 237.83 79.0973 237.766 79.091C235.091 78.8314 233.524 76.9997 233.253 76.6722C232.699 74.9852 232.146 73.2984 231.592 71.6113C233.649 71.569 235.707 71.5263 237.766 71.4836C240.119 71.4352 242.472 71.3865 244.825 71.3379Z" fill="#B4D5F9"/>
<path d="M244.804 71.3379C244.416 73.0795 244.029 74.8211 243.641 76.5628C243.454 76.7956 241.343 79.3345 237.938 79.1069C237.873 79.1025 237.808 79.0973 237.744 79.091V71.4836C240.097 71.4352 242.451 71.3865 244.804 71.3379Z" fill="#92C0EA"/>
<path d="M233.211 73.7593L232.343 74.1416C231.336 71.083 230.329 68.0244 229.321 64.9658C229.598 65.0205 229.875 65.0752 230.152 65.13C231.172 68.0064 232.191 70.8828 233.211 73.7593Z" fill="#B4D5F9"/>
<path d="M243.53 72.5514C243.835 72.743 244.139 72.9344 244.444 73.126C244.974 70.3082 245.505 67.4906 246.036 64.673C245.759 64.7277 245.482 64.7824 245.205 64.8371C244.647 67.4085 244.088 69.98 243.53 72.5514Z" fill="#92C0EA"/>
<path d="M272.19 115.179C270.174 116.532 267.207 114.994 264.901 113.8C262.357 112.484 257.624 109.429 253.809 102.411C253.995 100.138 254.021 97.2832 253.56 94.0391C252.971 89.8973 251.786 86.5224 250.708 84.0819C251.531 84.1013 252.578 84.2206 253.726 84.6017C256.555 85.5407 258.214 87.4767 258.903 88.3977L273.586 107.976C275.207 110.336 274.579 113.577 272.19 115.179V115.179Z" fill="#DFF0FF"/>
<path d="M265.694 86.3933C266.053 86.7229 265.819 87.5278 265.705 87.9223C265.478 88.7051 265.203 88.8278 265.059 89.5017C264.935 90.08 265.064 90.3369 265.059 90.7785C265.04 92.1528 263.735 93.7902 262.372 93.9707C261.69 94.0613 261.723 93.691 259.957 93.299C258.569 92.9906 258.283 93.161 257.611 92.7611C256.657 92.1945 256.285 91.2883 256.216 91.1143C256.109 90.8418 255.904 90.2997 256.012 89.6361C256.113 89.0165 256.446 88.5396 256.761 88.0903C257.132 87.5594 257.335 87.4526 257.475 87.015C257.567 86.7276 257.55 86.5513 257.542 86.0069C257.515 84.0733 257.687 83.8937 257.78 83.8226C257.839 83.7788 257.825 83.8081 258.903 83.7554C259.422 83.7299 259.659 83.7118 259.923 83.8562C260.119 83.9634 260.142 84.057 260.264 84.0578C260.592 84.06 260.647 83.3783 261.045 83.1841C261.59 82.9192 262.492 83.6998 262.712 83.8898C263.93 84.9433 263.933 86.0897 264.854 86.2757C265.246 86.3548 265.477 86.1941 265.694 86.3933Z" fill="#F8B586"/>
<path d="M257.683 91.2051C257.419 91.3043 257.163 91.2439 256.954 91.1842C256.284 90.9936 255.878 90.4924 255.694 90.2219C255.347 88.8207 255 87.4195 254.652 86.0182C254.465 85.535 254.712 84.9881 255.201 84.803C255.69 84.618 256.244 84.862 256.431 85.3453L258.231 89.9897C258.418 90.473 258.172 91.0195 257.683 91.2051Z" fill="#EAB488"/>
<path d="M258.358 85.2883C257.985 85.2612 257.748 84.9997 257.748 84.9997C257.596 84.8333 257.509 84.61 257.521 84.3701L257.962 76.0478C257.988 75.5678 258.405 75.1958 258.891 75.2209C259.377 75.246 259.753 75.6592 259.728 76.1391C259.711 78.7879 259.695 81.4367 259.679 84.0855C259.405 84.8451 258.853 85.3243 258.358 85.2883Z" fill="#EAB488"/>
<path d="M261.415 84.0683C261.159 84.1739 260.782 84.3293 260.529 84.1467C260.293 83.9765 260.231 83.5616 260.393 83.1387C260.594 82.0847 260.795 81.0308 260.996 79.9769C261.04 79.5354 261.44 79.2091 261.887 79.2518C262.334 79.2945 262.664 79.6908 262.621 80.1322L262.306 83.3432C262.175 83.5308 261.893 83.8712 261.415 84.0683Z" fill="#DA9770"/>
<path d="M261.553 82.2926C261.106 82.2499 260.776 81.8536 260.819 81.4122L260.96 79.9769C261.003 79.5354 261.404 79.2091 261.851 79.2518C262.298 79.2945 262.628 79.6908 262.585 80.1322L262.444 81.5676C262.401 82.0091 262 82.3353 261.553 82.2926Z" fill="#EAB488"/>
<path d="M262.971 84.9909C262.536 84.8828 262.269 84.4424 262.378 84.0122L263.173 80.8834C263.283 80.4532 263.729 80.1897 264.164 80.2977C264.599 80.4058 264.866 80.8462 264.757 81.2764C264.531 82.4854 264.305 83.6943 264.079 84.9032C264.155 85.2717 264.14 85.6222 263.977 85.7097C263.782 85.815 263.348 85.5548 262.971 84.9909Z" fill="#DA9770"/>
<path d="M263.41 83.3358C262.975 83.2277 262.708 82.7873 262.817 82.3571L263.155 81.0298C263.264 80.5996 263.71 80.336 264.145 80.4441C264.581 80.5521 264.847 80.9925 264.738 81.4228L264.4 82.75C264.291 83.1803 263.846 83.4438 263.41 83.3358Z" fill="#EAB488"/>
<path d="M264.568 87.0526C264.482 87.0142 264.238 86.9047 264.112 86.6307C264.025 86.4425 264.011 86.2218 264.09 86.0142L265.237 82.9937C265.395 82.5784 265.867 82.366 266.288 82.5218C266.708 82.6776 266.923 83.1448 266.765 83.5602C266.468 84.6435 266.172 85.727 265.875 86.8104C265.837 86.8388 265.169 87.3218 264.568 87.0526Z" fill="#DA9770"/>
<path d="M265.226 85.4448C264.806 85.289 264.592 84.8217 264.749 84.4064L265.285 82.9937C265.443 82.5784 265.915 82.366 266.336 82.5218C266.756 82.6776 266.971 83.1449 266.814 83.5602L266.277 84.9729C266.12 85.3881 265.646 85.6006 265.226 85.4448Z" fill="#EAB488"/>
<path d="M258.54 85.5454C258.636 85.6824 258.683 85.8608 258.778 86.2176C258.846 86.4775 258.918 86.7517 258.948 87.1248C258.976 87.4838 258.993 87.6959 258.914 87.9649C258.855 88.1647 258.743 88.5441 258.438 88.6706C258.047 88.8329 257.51 88.5799 257.315 88.2002C257.178 87.9329 257.234 87.6497 257.261 87.5101C257.329 87.1673 257.47 87.1623 257.57 86.8199C257.632 86.6062 257.618 86.3391 257.585 85.8138C257.55 85.254 257.506 85.1393 257.592 85.073C257.769 84.9367 258.28 85.1741 258.54 85.5454Z" fill="#F9CDAF"/>
<path d="M258.399 93.0168C258.391 92.9427 258.824 92.914 259.381 92.6371C259.702 92.4775 260.043 92.3113 260.299 91.9647C260.632 91.5145 260.583 91.119 260.843 91.0579C260.977 91.0262 261.06 91.1154 261.285 91.2254C261.766 91.4613 262.222 91.4613 262.475 91.4606C262.626 91.4606 263.148 91.4477 263.734 91.1586C263.994 91.0298 264.019 90.909 264.754 90.3186C264.877 90.22 264.979 90.1402 265.046 90.0879C265.089 90.3236 265.128 90.6796 265.063 91.1017C264.971 91.7037 264.722 92.1165 264.571 92.3595C264.33 92.7486 263.954 93.3548 263.182 93.6921C263.01 93.7669 262.515 93.9754 261.896 93.9093C261.315 93.8467 261.297 93.613 260.329 93.3555C259.736 93.1973 259.246 93.1347 259.246 93.1347C258.735 93.0693 258.406 93.0815 258.399 93.0168Z" fill="#D38A66"/>
<path d="M274.631 116.963C272.911 117.76 270.591 116.628 269.931 116.305C268.287 115.502 267.307 114.329 266.828 113.656C265.117 109.412 263.405 105.168 261.694 100.922C262.372 100.135 265.862 95.9777 267.201 96.3351C269.377 96.9155 274.984 106.088 276.415 108.913C277.622 112.686 276.601 116.051 274.631 116.963Z" fill="white"/>
<path d="M256.841 93.0782C256.599 93.3349 257.187 94.4165 258.374 96.5674C259.733 99.0305 259.466 98.2143 260.093 99.4598C260.361 99.9927 260.473 100.266 260.808 100.528C261.566 101.121 262.6 100.971 263.532 100.838C264.052 100.762 265.13 100.595 266.32 99.8733C267.681 99.0456 269.273 97.7447 269.32 96.8206C269.375 95.7297 266.416 91.5407 265.98 91.4803C265.616 91.4292 260.841 93.7074 259.443 93.6291C257.922 93.5442 257.151 92.7488 256.841 93.0782Z" fill="white"/>
<path d="M121.14 254.993C121.442 254.792 121.864 254.445 122.115 253.897C122.388 253.299 122.386 252.624 121.627 250.243C120.951 248.119 120.691 247.836 120.531 246.711C120.399 245.778 120.444 245.036 120.531 244.153C120.794 241.486 121.305 238.839 121.749 236.845C119.394 233.922 117.04 230.999 114.685 228.076C113.869 228.174 112.687 228.415 111.397 229.05C110.451 229.516 109.725 230.057 109.204 230.512C109.293 231.234 109.483 232.363 109.935 233.679C110.639 235.729 111.263 236.14 112.127 238.307C112.366 238.905 112.415 239.116 113.346 242.569C114.121 245.448 114.508 246.887 114.563 247.076C115.161 249.121 116.747 251.895 121.14 254.993Z" fill="#013666"/>
<path d="M120.137 257.387C119.399 256.736 118.408 255.801 117.335 254.586C115.79 252.837 114.658 251.556 113.803 249.714C112.478 246.86 113.216 245.669 111.733 242.285C111.139 240.929 110.483 239.895 110.028 239.24C109.222 238.21 107.971 236.276 107.713 233.637C107.644 232.925 107.657 232.27 107.713 231.688C108.2 231.485 108.688 231.283 109.175 231.079C110.572 235.257 112.436 239.954 114.948 244.939C116.965 248.941 119.072 252.48 121.111 255.561C120.786 256.169 120.462 256.778 120.137 257.387Z" fill="white"/>
<path d="M147.814 214.866C141.233 220.657 135.624 224.961 134.66 225.706C131.379 228.239 126.822 232.057 121.749 237.398C120.847 237.478 118.934 237.511 116.999 236.424C113.066 234.215 112.74 229.453 112.72 229.065C116.805 226.973 120.928 224.017 124.306 219.738C127.606 215.56 127.421 213.634 131.006 209.873C132.975 207.806 137.655 202.894 144.16 202.809C148.116 202.756 153.25 204.482 153.782 207.315C154.095 208.988 152.712 210.555 147.814 214.866Z" fill="#1A5DA0"/>
<path d="M141.748 255.452C140.401 255.73 139.287 255.859 138.507 255.925C136.86 256.064 137.019 255.884 135.523 256.046C134.187 256.192 133.524 256.394 132.599 256.108C132.165 255.973 131.585 255.818 131.199 255.316C130.649 254.6 130.695 253.471 131.26 252.393C134.821 252.497 138.381 252.601 141.942 252.705C142.055 253.025 142.222 253.643 142.1 254.402C142.027 254.851 141.877 255.207 141.748 255.452Z" fill="white"/>
<path d="M141.36 253.605C141.92 252.992 142.13 251.794 141.725 251.047C141.539 250.704 141.342 250.676 141.11 250.261C140.678 249.49 140.833 248.65 140.872 248.368C141.133 246.495 140.065 241.951 137.706 241.06C136.672 240.67 135.64 241.074 135.392 241.182C134.167 241.709 133.638 242.885 133.321 243.618C132.425 245.69 133.377 246.21 132.59 248.368C132.007 249.966 131.236 250.36 131.25 251.778C131.255 252.234 131.264 253.144 131.859 253.727C132.658 254.509 133.729 253.934 136.366 253.848C139.481 253.748 140.572 254.466 141.36 253.605Z" fill="#013666"/>
<path d="M133.192 202.067C136.242 218.465 137.767 226.665 138.186 234.83C138.218 235.454 138.26 236.35 138.551 237.509C138.909 238.934 139.318 239.461 139.769 240.919C139.983 241.611 140.247 242.642 140.378 243.964C139.675 243.548 138.637 243.093 137.455 243.233C135.005 243.525 134.084 246.122 132.827 245.913C131.357 245.669 130.884 241.828 130.635 240.189C129.648 233.726 128.052 234.976 125.032 225.086C123.011 218.472 122.832 213.734 122.474 204.259C122.437 203.288 122.386 201.201 123.692 199.387C125.245 197.228 128.433 195.851 130.513 196.829C132.344 197.691 132.836 200.152 133.192 202.067V202.067Z" fill="#57A8E5"/>
<path d="M149.162 211.555L149.42 211.512C149.88 211.412 152.2 210.863 153.665 208.6C154.92 206.66 154.751 204.693 154.684 204.14C151.773 189.722 148.863 175.304 145.953 160.887C145.085 160.672 139.183 159.308 134.004 163.109C130.517 165.67 129.288 169.157 128.906 170.43C133.201 182.383 137.495 194.337 141.79 206.291C142.369 209.765 145.687 212.134 149.162 211.555Z" fill="#1A5DA0"/>
<path d="M127.387 204.095C129.926 204.347 131.73 202.524 132.133 202.121C133.352 200.903 134.107 199.222 134.107 197.375C135.266 183.928 136.424 170.482 137.583 157.035C136.348 156.119 134.511 154.87 132.133 153.65C130.332 152.726 129.034 152.072 127.387 151.676C126.178 151.385 121.371 150.23 117.897 152.852C114.83 155.166 113.65 159.78 114.89 164.356C117.4 176.121 119.91 187.886 122.42 199.65C123.171 202.107 125.14 203.871 127.387 204.095V204.095Z" fill="#57A8E5"/>
<path d="M108.317 133.604C108.26 135.428 108.249 136.994 108.253 138.229C108.257 139.711 108.279 139.16 108.317 142.083C108.33 143.134 108.34 144.222 108.451 145.68C108.597 147.594 108.752 147.977 108.895 148.25C109.341 149.102 110.337 150.146 111.464 150.24C114.29 150.478 116.556 144.626 116.795 144.01C117.655 141.789 117.818 139.816 117.823 138.551C117.831 135.922 117.163 133.855 116.666 132.642C113.883 132.962 111.1 133.284 108.317 133.604Z" fill="#DA9770"/>
<path d="M126.827 115.723C123.312 115.724 120.654 116.532 118.926 117.072C115.544 118.128 113.143 118.878 111.218 121.118C109.434 123.194 108.943 125.521 108.327 128.442C107.774 131.064 107.709 133.293 107.749 134.801C111.025 135.122 114.301 135.443 117.577 135.765V131.332C117.577 131.257 118.227 137.402 117.77 143.281C117.433 147.612 116.371 153.985 112.916 161.559C115.188 163.33 118.682 165.546 123.358 166.791C134.761 169.826 144.383 164.738 146.869 163.322C146.541 161.628 146.01 158.907 145.334 155.545C144.019 149.002 143.62 147.314 143.242 144.434C142.967 142.33 142.656 139.228 142.63 135.379C144.75 134.865 146.869 134.351 148.989 133.838C147.769 129.919 146.548 126 145.328 122.082C144.504 121.611 143.244 120.915 141.666 120.155C136.762 117.792 132.462 115.72 126.827 115.723L126.827 115.723Z" fill="white"/>
<path d="M121.729 116.262C123.188 117.955 124.32 118.484 125.338 118.972C127.788 120.143 131.233 121.299 132.66 119.488C132.985 119.075 133.005 117.524 133.126 116.692C133.463 114.383 133.748 113.391 133.302 112.227C131.161 111.927 129.021 111.628 126.88 111.328C126.298 112.148 125.781 113.586 124.491 114.591C123.485 115.375 122.516 115.904 121.729 116.262Z" fill="#DA9770"/>
<path d="M124.869 100.506C124.337 101.379 124.301 103.338 124.226 107.256C124.205 108.382 124.212 109.874 124.483 111.735C124.637 112.791 124.714 113.32 124.869 113.76C125.712 116.158 128.639 118.685 131.163 118.178C132.73 117.863 133.59 116.488 134.76 114.619C135.559 113.343 136.164 111.981 137.136 108.238C138.327 103.655 138.909 101.339 138.229 100.138C136.634 97.3242 132.236 97.1991 131.869 97.1933C129.341 97.1538 126.267 98.2095 124.869 100.506Z" fill="#F8B586"/>
<path d="M137.878 100.466C137.208 100.821 136.25 101.217 135.052 101.366C132.081 101.735 129.8 100.317 129.079 99.8239C128.56 101.301 128.507 102.472 128.565 103.292C128.61 103.926 128.727 104.431 128.436 104.705C127.988 105.13 126.889 104.705 125.995 104.256C125.873 104.738 125.685 105.429 125.417 106.247C124.844 107.998 124.558 108.873 124.257 108.881C123.614 108.9 122.853 105.814 122.72 103.1C122.652 101.724 122.58 99.8642 123.362 97.6399C123.884 96.1578 124.447 94.5563 125.931 93.4653C128.817 91.3432 132.852 92.8634 133.768 93.2079C134.905 93.6365 138.554 95.0114 139.484 98.4748C140.299 101.511 138.63 104.682 138.142 104.602C137.903 104.562 137.724 103.699 137.878 100.466Z" fill="#013666"/>
<path d="M110.583 144.967C111.52 143.945 112.512 143.448 112.831 143.297C114.717 142.408 115.504 143.065 117.905 142.463C119.415 142.084 120.458 141.485 121.887 140.664C123.054 139.994 123.886 139.361 125.548 138.095C127.079 136.93 127.929 136.282 128.953 135.333C131.729 132.758 131.826 131.52 132.743 131.543C134.902 131.6 137.381 138.483 135.59 140.037C134.873 140.658 133.583 140.335 132.715 140.028C132.615 140.287 132.398 140.732 131.945 141.088C130.924 141.891 129.632 141.522 129.486 141.477C128.872 142.365 127.86 143.697 126.383 145.096C125.272 146.149 123.851 147.118 121.052 149.014C118.158 150.975 117.296 151.44 116.428 151.84C114.364 152.792 113.236 153.291 111.868 152.932C110.448 152.56 109.095 151.348 108.72 149.785C108.19 147.578 109.867 145.748 110.583 144.967Z" fill="#F8B586"/>
<path d="M138.207 133.085H132.485C132.289 133.085 132.129 132.924 132.129 132.729V131.899C132.129 131.703 132.289 131.543 132.485 131.543H138.207C138.403 131.543 138.563 131.703 138.563 131.899V132.729C138.563 132.924 138.403 133.085 138.207 133.085Z" fill="#F8B586"/>
<path d="M137.323 136.582L131.989 134.931C131.766 134.862 131.639 134.622 131.708 134.399L132.001 133.454C132.07 133.23 132.31 133.104 132.533 133.173L137.867 134.824C138.091 134.893 138.216 135.133 138.147 135.357L137.855 136.302C137.786 136.525 137.546 136.651 137.323 136.582Z" fill="#F8B586"/>
<path d="M136.45 138.395L131.106 136.74C130.885 136.672 130.761 136.435 130.829 136.215L131.118 135.281C131.187 135.061 131.423 134.936 131.643 135.004L136.988 136.659C137.208 136.727 137.333 136.964 137.265 137.184L136.976 138.118C136.908 138.338 136.671 138.462 136.45 138.395Z" fill="#F8B586"/>
<path d="M135.867 140.13L130.635 138.51C130.384 138.432 130.241 138.163 130.319 137.912L130.509 137.3C130.587 137.048 130.856 136.906 131.107 136.984L136.34 138.604C136.591 138.682 136.733 138.951 136.655 139.203L136.466 139.815C136.388 140.066 136.118 140.208 135.867 140.13Z" fill="#F8B586"/>
<path d="M139.249 134.193L137.302 132.879C136.95 132.642 136.857 132.16 137.094 131.809C137.332 131.457 137.813 131.364 138.164 131.601L140.111 132.916C140.463 133.153 140.556 133.634 140.319 133.986C140.082 134.337 139.6 134.43 139.249 134.193Z" fill="#F8B586"/>
<path d="M148.99 137.969L148.011 137.806C147.781 137.767 147.624 137.548 147.662 137.318L148.59 131.751C148.629 131.521 148.849 131.364 149.079 131.402L150.058 131.565C150.288 131.604 150.445 131.824 150.407 132.054L149.478 137.62C149.44 137.851 149.22 138.007 148.99 137.969Z" fill="#F8B586"/>
<path d="M144.267 138.999C146.543 136.031 148.819 133.062 151.095 130.093C151.078 129.764 151.062 129.434 151.045 129.104C148.885 129.039 146.724 128.972 144.564 128.906C141.86 131.875 139.155 134.843 136.45 137.812C136.467 138.043 136.483 138.274 136.5 138.504C139.089 138.669 141.678 138.835 144.267 138.999Z" fill="#013666"/>
<path d="M148.789 139.233C148.937 140.939 149.163 142.409 149.388 143.601C149.802 145.79 150.114 146.522 149.987 147.883C149.901 148.817 149.698 151.009 148.189 151.737C146.564 152.522 144.187 151.242 143.394 149.596C143.036 148.855 143.094 148.238 143.179 146.899C143.267 145.512 143.375 143.489 143.436 140.946C145.22 140.375 147.004 139.804 148.789 139.233Z" fill="#F8B586"/>
<path d="M146.476 142.761C147.278 142.381 147.698 141.811 148.103 141.263C148.952 140.115 149.168 139.007 149.217 138.736C149.319 138.163 149.442 137.471 149.174 136.639C148.897 135.778 148.356 135.236 148.065 134.985C146.854 136.321 145.583 137.674 144.25 139.036C143.502 139.801 142.757 140.545 142.017 141.269C142.126 141.466 142.91 142.829 144.47 143.081C145.445 143.239 146.223 142.882 146.476 142.761Z" fill="#DA9770"/>
<path d="M148.17 139.743L147.433 140.48C147.268 140.645 146.999 140.645 146.833 140.48L140.602 134.248C140.437 134.084 140.437 133.813 140.602 133.648L141.339 132.912C141.504 132.747 141.773 132.747 141.938 132.912L148.17 139.143C148.335 139.308 148.335 139.578 148.17 139.743Z" fill="#F8B586"/>
<path d="M147.839 137.91L147.187 137.999C146.851 138.045 146.539 137.808 146.493 137.472L145.831 132.625C145.785 132.289 146.022 131.977 146.358 131.931L147.01 131.842C147.345 131.796 147.658 132.034 147.704 132.369L148.366 137.216C148.411 137.552 148.175 137.865 147.839 137.91Z" fill="#F8B586"/>
<path d="M146.852 141.281L146.115 142.018C145.951 142.183 145.68 142.183 145.516 142.018L139.284 135.787C139.119 135.621 139.119 135.351 139.284 135.187L140.021 134.45C140.186 134.285 140.456 134.285 140.62 134.45L146.852 140.682C147.017 140.846 147.017 141.116 146.852 141.281Z" fill="#F8B586"/>
<path d="M144.602 141.733L143.784 142.551C143.642 142.694 143.408 142.694 143.266 142.551L138.975 138.259C138.831 138.117 138.831 137.884 138.975 137.741L139.792 136.923C139.935 136.781 140.168 136.781 140.311 136.923L144.602 141.214C144.745 141.357 144.745 141.59 144.602 141.733Z" fill="#F8B586"/>
</svg>
