<svg width="25" height="24" viewBox="0 0 25 24" fill="none" xmlns="http://www.w3.org/2000/svg">
<path fill-rule="evenodd" clip-rule="evenodd" d="M19.209 4.13L20.9069 2.5C24.9798 6.55 24.9694 12.61 20.9069 16.5L19.209 14.87C22.0944 11.69 22.0944 7.15 19.209 4.13ZM13.5423 9.5C13.5423 11.71 11.6777 13.5 9.37566 13.5C7.07358 13.5 5.20899 11.71 5.20899 9.5C5.20899 7.29 7.07358 5.5 9.37566 5.5C11.6777 5.5 13.5423 7.29 13.5423 9.5ZM11.459 9.5C11.459 8.4 10.5215 7.5 9.37566 7.5C8.22983 7.5 7.29233 8.4 7.29233 9.5C7.29233 10.6 8.22983 11.5 9.37566 11.5C10.5215 11.5 11.459 10.6 11.459 9.5ZM9.37566 15.5C6.59441 15.5 1.04233 16.84 1.04233 19.5V21.5H17.709V19.5C17.709 16.84 12.1569 15.5 9.37566 15.5ZM9.37566 17.5C6.57358 17.5 3.35483 18.78 3.12566 19.5H15.6257C15.4173 18.79 12.1882 17.5 9.37566 17.5ZM15.709 7.55C16.584 8.73 16.584 10.26 15.709 11.44L17.459 13.13C19.5632 11.11 19.5632 8.06 17.459 5.86L15.709 7.55Z" fill="black" fill-opacity="0.54"/>
</svg>
