<svg width="24" height="24" viewBox="0 0 24 24" fill="none" xmlns="http://www.w3.org/2000/svg">
<path fill-rule="evenodd" clip-rule="evenodd" d="M18.4406 4.13L20.0706 2.5C23.9806 6.55 23.9706 12.61 20.0706 16.5L18.4406 14.87C21.2106 11.69 21.2106 7.15 18.4406 4.13ZM13.0006 9.5C13.0006 11.71 11.2106 13.5 9.00061 13.5C6.79061 13.5 5.00061 11.71 5.00061 9.5C5.00061 7.29 6.79061 5.5 9.00061 5.5C11.2106 5.5 13.0006 7.29 13.0006 9.5ZM11.0006 9.5C11.0006 8.4 10.1006 7.5 9.00061 7.5C7.90061 7.5 7.00061 8.4 7.00061 9.5C7.00061 10.6 7.90061 11.5 9.00061 11.5C10.1006 11.5 11.0006 10.6 11.0006 9.5ZM9.00061 15.5C6.33061 15.5 1.00061 16.84 1.00061 19.5V21.5H17.0006V19.5C17.0006 16.84 11.6706 15.5 9.00061 15.5ZM9.00061 17.5C6.31061 17.5 3.22061 18.78 3.00061 19.5H15.0006C14.8006 18.79 11.7006 17.5 9.00061 17.5ZM15.0806 7.55C15.9206 8.73 15.9206 10.26 15.0806 11.44L16.7606 13.13C18.7806 11.11 18.7806 8.06 16.7606 5.86L15.0806 7.55Z" fill="#007AFE"/>
</svg>
