<svg width="24" height="24" viewBox="0 0 24 24" fill="none" xmlns="http://www.w3.org/2000/svg">
<path d="M11.1429 1.17147C8.57793 1.17147 6.21435 2.06514 4.33036 3.55952C4.08294 3.34967 3.77079 3.221 3.42857 3.221C2.64636 3.221 2 3.88341 2 4.68495C2 5.0333 2.12819 5.34717 2.33036 5.5999C0.869452 7.53149 0 9.95923 0 12.5903C0 15.5239 1.08078 18.2001 2.85714 20.2212C2.68413 20.4634 2.57143 20.7617 2.57143 21.0812C2.57143 21.8828 3.21779 22.5452 4 22.5452C4.3867 22.5452 4.74144 22.3756 5 22.1151C6.76071 23.3077 8.87497 24 11.1429 24C17.2935 24 22.2857 18.8933 22.2857 12.5903C22.2857 9.87488 21.3596 7.37809 19.8125 5.41694C20.113 4.95365 20.2857 4.40131 20.2857 3.80658C20.2857 2.19647 18.9998 0.878661 17.4286 0.878661C16.5378 0.878661 15.7393 1.29799 15.2143 1.95834C14.8171 1.79827 14.4089 1.65957 13.9911 1.54659C14.0077 0.692984 13.4024 -0.0164511 12.5714 0.000290369C11.7399 0.0251684 11.3098 0.64663 11.1429 1.17147ZM11.1428 1.74794C11.2232 2.47318 11.9892 2.91194 12.5714 2.92821C13.1282 2.92821 13.6043 2.58725 13.8393 2.10473C14.1982 2.20191 14.5497 2.31883 14.8928 2.45244C14.6872 2.85602 14.5714 3.3221 14.5714 3.80658C14.5714 5.41672 15.8574 6.73448 17.4286 6.73448C18.2141 6.73448 18.9285 6.40512 19.4464 5.8744C20.8674 7.72044 21.7143 10.0552 21.7143 12.5903C21.7143 18.5768 16.9847 23.4235 11.1428 23.4235C8.98939 23.4235 6.99138 22.7617 5.3214 21.6302C5.38945 21.4604 5.42855 21.2746 5.42855 21.0812C5.42855 20.2796 4.78218 19.6173 3.99997 19.6173C3.73493 19.6173 3.49071 19.6959 3.27676 19.8278C1.59371 17.9093 0.571414 15.3753 0.571414 12.5903C0.571414 10.0973 1.38864 7.79775 2.76784 5.9659C2.9672 6.07507 3.18904 6.14892 3.42856 6.14892C4.21077 6.14892 4.85713 5.48655 4.85713 4.68495C4.85713 4.44076 4.78407 4.21151 4.67856 4.00789C6.46509 2.59042 8.70793 1.74794 11.1428 1.74794V1.74794ZM21.1429 5.27051C21.1429 6.07214 21.7892 6.73448 22.5714 6.73448C23.3536 6.73448 24 6.07214 24 5.27051C24 4.46894 23.3536 3.80658 22.5714 3.80658C21.6431 3.82677 21.1604 4.65184 21.1429 5.27051ZM11.1428 5.26144C7.20472 5.26144 3.99999 8.55467 3.99999 12.5904C3.99999 16.6261 7.20472 19.9102 11.1428 19.9102C15.081 19.9102 18.2857 16.6261 18.2857 12.5904C18.2857 8.55467 15.081 5.26144 11.1428 5.26144V5.26144ZM20.8571 21.0813C20.8571 21.8829 21.5035 22.5453 22.2857 22.5453C23.0679 22.5453 23.7143 21.8829 23.7143 21.0813C23.7143 20.2797 23.0679 19.6173 22.2857 19.6173C21.3931 19.6559 20.8747 20.4626 20.8571 21.0813Z" fill="#007AFE"/>
</svg>
